<svg width="100" height="100" viewBox="0 0 100 100" fill="none" xmlns="http://www.w3.org/2000/svg">
<path d="M15.12 43C14.9067 41.6133 14.8 40.2 14.8 38.76C14.8533 37.32 15.12 35.9067 15.6 34.52C16.1867 32.7067 17.1467 31.1067 18.48 29.72C19.8133 28.3333 21.3333 27.24 23.04 26.44C24.8533 25.5867 26.6933 25 28.56 24.68C30.48 24.3067 32.3467 24.2267 34.16 24.44C36.0267 24.6533 37.8133 25.1333 39.52 25.88C41.28 26.5733 42.9333 27.5867 44.48 28.92C46.1333 30.36 47.36 32.04 48.16 33.96C49.0133 35.8267 49.4667 37.7733 49.52 39.8C49.6267 41.8267 49.3867 43.8533 48.8 45.88C48.2667 47.8533 47.44 49.6933 46.32 51.4C46.32 51.4 46.2933 51.4533 46.24 51.56C45.3333 52.7867 44.2933 53.9067 43.12 54.92C41.9467 55.88 40.8533 56.92 39.84 58.04C38.6667 59.2667 37.9733 60.52 37.76 61.8C37.5467 63.0267 37.3333 64.4133 37.12 65.96C36.96 67.4533 36.56 68.76 35.92 69.88C35.3333 70.9467 34.2133 71.4533 32.56 71.4C31.44 71.3467 30.5867 71 30 70.36C29.4667 69.6667 29.0667 68.8667 28.8 67.96C28.5867 67 28.5067 66.0133 28.56 65C28.6133 63.9333 28.6933 63 28.8 62.2C29.12 60.3333 29.7067 58.5733 30.56 56.92C31.4133 55.2133 32.4533 53.6133 33.68 52.12C34.3733 51.32 35.0667 50.6 35.76 49.96C36.4533 49.2667 37.0933 48.5467 37.68 47.8C38.2667 47.0533 38.7733 46.2533 39.2 45.4C39.6267 44.5467 39.92 43.56 40.08 42.44C40.24 41.4267 40.16 40.4133 39.84 39.4C39.52 38.3333 39.04 37.4 38.4 36.6C37.76 35.7467 36.9867 35.0533 36.08 34.52C35.1733 33.9333 34.1867 33.6133 33.12 33.56C32.16 33.5067 31.1467 33.64 30.08 33.96C29.0133 34.2267 28.0267 34.68 27.12 35.32C26.2133 35.9067 25.4667 36.6267 24.88 37.48C24.3467 38.3333 24.1067 39.2933 24.16 40.36C24.2133 41 24.32 41.6667 24.48 42.36C24.6933 43 24.8267 43.64 24.88 44.28C24.9867 44.8667 24.96 45.4533 24.8 46.04C24.6933 46.6267 24.3467 47.1867 23.76 47.72C22.8 48.6267 21.84 49.08 20.88 49.08C19.92 49.0267 19.04 48.7067 18.24 48.12C17.44 47.5333 16.7467 46.7867 16.16 45.88C15.6267 44.92 15.28 43.96 15.12 43ZM38.16 82.92C38.16 84.4667 37.5733 85.8533 36.4 87.08C35.28 88.2533 33.9733 88.84 32.48 88.84C31.04 88.84 29.76 88.2533 28.64 87.08C27.52 85.8 26.96 84.4133 26.96 82.92C26.96 81.2667 27.52 79.88 28.64 78.76C29.76 77.5333 31.04 76.92 32.48 76.92C33.9733 76.92 35.28 77.5333 36.4 78.76C37.5733 79.9333 38.16 81.32 38.16 82.92Z" fill="#33FFFF"/>
<path d="M74 22.5V32L80.3333 35.1667M89.8333 32C89.8333 40.7445 82.7445 47.8333 74 47.8333C65.2555 47.8333 58.1667 40.7445 58.1667 32C58.1667 23.2555 65.2555 16.1667 74 16.1667C82.7445 16.1667 89.8333 23.2555 89.8333 32Z" stroke="#33FFFF" stroke-width="4" stroke-linecap="round" stroke-linejoin="round"/>
</svg>
