<svg width="50" height="50" viewBox="0 0 50 50" fill="none" xmlns="http://www.w3.org/2000/svg">
<path fill-rule="evenodd" clip-rule="evenodd" d="M45.1736 22.7747C45.2998 22.7747 45.4249 22.7498 45.5415 22.7015C45.6582 22.6532 45.7642 22.5824 45.8535 22.4931C45.9428 22.4038 46.0136 22.2978 46.0619 22.1811C46.1102 22.0644 46.1351 21.9394 46.1351 21.8131C46.1291 16.4961 44.0143 11.3985 40.2546 7.6388C36.4949 3.87908 31.3973 1.76425 26.0803 1.7583C25.954 1.75829 25.8289 1.78316 25.7123 1.83147C25.5956 1.87979 25.4896 1.95062 25.4003 2.03991C25.311 2.1292 25.2402 2.2352 25.1919 2.35186C25.1436 2.46853 25.1187 2.59357 25.1187 2.71984V21.8131C25.1187 21.9394 25.1436 22.0644 25.1919 22.1811C25.2402 22.2978 25.311 22.4038 25.4003 22.4931C25.4896 22.5824 25.5956 22.6532 25.7123 22.7015C25.8289 22.7498 25.954 22.7747 26.0803 22.7747H45.1736ZM27.0418 3.70655C31.5099 3.94995 35.7308 5.83444 38.8949 8.99853C42.059 12.1626 43.9434 16.3835 44.1868 20.8516H27.0418V3.70655ZM42.1458 40.9356C42.3843 40.9358 42.6144 40.8472 42.7911 40.687C44.6923 38.9629 46.2121 36.8605 47.2529 34.5145C48.2937 32.1685 48.8326 29.6308 48.8349 27.0643C48.8349 26.938 48.81 26.813 48.7617 26.6963C48.7134 26.5797 48.6426 26.4737 48.5533 26.3844C48.464 26.2951 48.358 26.2243 48.2413 26.176C48.1247 26.1276 47.9996 26.1028 47.8734 26.1028H27.6611C27.4663 26.1028 27.276 26.1621 27.1156 26.2726C26.9552 26.3832 26.8321 26.54 26.7627 26.7221C26.6934 26.9042 26.681 27.103 26.7272 27.2923C26.7734 27.4816 26.876 27.6524 27.0215 27.7821L41.5062 40.6919C41.6821 40.8491 41.9099 40.9359 42.1458 40.9356ZM46.8837 28.0259C46.6449 32.0338 44.9524 35.817 42.1237 38.6663L30.1852 28.0259H46.8837ZM35.7787 39.2636C35.8282 39.3798 35.8542 39.5047 35.8554 39.6309C35.8566 39.7572 35.8329 39.8825 35.7856 39.9996C35.7384 40.1167 35.6685 40.2233 35.58 40.3134C33.25 42.6874 30.3692 44.4486 27.194 45.4402C24.0188 46.4317 20.6478 46.623 17.3808 45.9969C14.1139 45.3708 11.0523 43.9468 8.46872 41.8516C5.8851 39.7564 3.85952 37.055 2.57224 33.9877C1.28496 30.9205 0.775906 27.5826 1.09038 24.2711C1.40486 20.9596 2.53312 17.7772 4.37474 15.0071C6.21637 12.237 8.71424 9.96511 11.6461 8.39367C14.5779 6.82223 17.8527 5.99994 21.1791 6C21.3054 5.99999 21.4304 6.02486 21.5471 6.07317C21.6638 6.12149 21.7698 6.19232 21.8591 6.28161C21.9484 6.3709 22.0192 6.4769 22.0675 6.59356C22.1158 6.71023 22.1407 6.83526 22.1407 6.96154V25.7754L35.5673 38.9537C35.6575 39.0421 35.7293 39.1474 35.7787 39.2636Z" fill="#33FFFF"/>
</svg>
