<svg width="50" height="50" viewBox="0 0 50 50" fill="none" xmlns="http://www.w3.org/2000/svg">
<path fill-rule="evenodd" clip-rule="evenodd" d="M23.9895 13.1519V8.74687C22.3221 8.29117 21.0589 6.77218 21.1095 4.94938C21.1095 2.77216 22.8779 1 25.0505 1C27.2231 1 28.9916 2.77216 28.9916 4.94938C28.9916 6.77218 27.7284 8.29117 26.0105 8.74687V13.1519H23.9895ZM35.7621 12.7972L32.68 15.8858L34.0947 17.3035L37.1768 14.2149C38.6926 15.1263 40.6631 14.9238 41.9768 13.6073C43.5432 12.0377 43.5432 9.55666 41.9768 7.98703C40.4105 6.41741 37.9347 6.41741 36.3684 7.98703C35.1053 9.30349 34.9032 11.2782 35.7621 12.7972ZM45.0589 21.0508C43.24 21.0508 41.6737 22.3166 41.2695 24.0381H36.8737V26.0635H41.2695C41.7242 27.7344 43.24 29.0002 45.0589 29.0002C47.2316 29.0002 49 27.228 49 25.0508C49 22.8229 47.2316 21.0508 45.0589 21.0508ZM12.8232 14.2149L15.9053 17.3035L17.32 15.8858L14.2379 12.7972C15.1474 11.2782 14.9453 9.30349 13.6316 7.98703C12.0653 6.41741 9.58951 6.41741 8.02319 7.98703C6.45686 9.55666 6.45686 12.0377 8.02319 13.6073C9.33687 14.8731 11.3074 15.0757 12.8232 14.2149ZM13.1768 26.0125H8.78105C8.32631 27.6834 6.81053 28.9492 4.94106 28.8986C2.76842 28.8986 1 27.1264 1 24.9492C1 22.772 2.76842 20.9998 4.94106 20.9998C6.81053 20.9998 8.32631 22.2656 8.78105 23.9872H13.1768V26.0125ZM14.2379 37.2026L17.32 34.114L15.9053 32.6963L12.8232 35.7849C11.3074 34.8735 9.33687 35.076 8.02319 36.3925C6.45686 37.9621 6.45686 40.4432 8.02319 42.0128C9.58951 43.5824 12.0653 43.5824 13.6316 42.0128C14.8948 40.6963 15.0969 38.7216 14.2379 37.2026ZM26.0105 36.8481V41.2532C27.6779 41.7089 28.9411 43.2279 28.9411 45.0507C28.9411 47.2279 27.1726 49.0001 25 49.0001C22.8274 49.0001 21.0589 47.2279 21.0589 45.0507C21.0589 43.2279 22.3221 41.7089 23.9895 41.2532V36.8481H26.0105ZM37.1768 35.7849L34.0947 32.6963L32.68 34.114L35.7621 37.2026C34.8526 38.7216 35.0547 40.6963 36.3684 42.0128C37.9347 43.5824 40.4105 43.5824 41.9768 42.0128C43.5432 40.4432 43.5432 37.9621 41.9768 36.3925C40.6631 35.1267 38.6926 34.9241 37.1768 35.7849ZM35.919 25.973C35.919 26.5135 35.5406 27 35 27.0541L32.946 27.3784C32.863 27.5775 32.8005 27.7307 32.7457 27.8647C32.6222 28.1673 32.5387 28.3717 32.3514 28.7838L33.5946 30.4054C33.919 30.8919 33.8649 31.4865 33.4865 31.8649L31.8109 33.5406C31.3784 33.9189 30.7838 33.973 30.3514 33.6487L28.7298 32.4054C28.5306 32.4884 28.3773 32.551 28.2433 32.6057C27.9408 32.7293 27.7364 32.8127 27.3244 33L27.0541 35.0541C27 35.5946 26.5135 35.973 25.973 35.973H23.5946C23.0541 35.973 22.5676 35.5946 22.5135 35.0541L22.2433 33C22.0441 32.9171 21.8909 32.8545 21.7568 32.7997C21.4543 32.6762 21.2499 32.5927 20.8379 32.4054L19.2162 33.6487C18.7297 33.973 18.1351 33.9189 17.7568 33.5406L16.0811 31.8649C15.7027 31.4325 15.6487 30.8379 15.973 30.4054L17.2162 28.7838C17.1332 28.5846 17.0706 28.4313 17.0159 28.2972C16.8924 27.9948 16.8089 27.7904 16.6216 27.3784L14.5676 27.1081C14.027 27.0541 13.6487 26.5676 13.6487 26.027V23.6487C13.6487 23.1081 14.027 22.6216 14.5676 22.5676L16.6216 22.2973C16.7046 22.0981 16.7672 21.9448 16.822 21.8107C16.9455 21.5083 17.029 21.3039 17.2162 20.8919L15.973 19.2162C15.6487 18.7838 15.7027 18.1351 16.0811 17.7568L17.7568 16.0811C18.1892 15.7027 18.7838 15.6486 19.2162 15.973L20.8379 17.2162C21.037 17.1332 21.1903 17.0706 21.3243 17.0159C21.6268 16.8924 21.8312 16.8089 22.2433 16.6216L22.5135 14.5676C22.5676 14.027 23.0541 13.6486 23.5946 13.6486H25.973C26.5135 13.6486 27 14.027 27.0541 14.5676L27.3244 16.6216C27.5235 16.7046 27.6768 16.7672 27.8108 16.8219C28.1133 16.9454 28.3177 17.0289 28.7298 17.2162L30.3514 15.973C30.8379 15.6486 31.4325 15.7027 31.8109 16.0811L33.4865 17.7568C33.8649 18.1892 33.919 18.7838 33.5946 19.2162L32.3514 20.8378C32.4343 21.0369 32.4969 21.1902 32.5516 21.3242C32.6752 21.6268 32.7587 21.8311 32.946 22.2432L35 22.5135C35.5406 22.5676 35.919 23.0541 35.919 23.5946V25.973ZM20.6216 24.7838C20.6216 27.1081 22.4595 28.946 24.7838 28.946C27.1081 28.946 28.946 27.1081 28.946 24.7838C28.946 22.4595 27.1081 20.6216 24.7838 20.6216C22.4595 20.6216 20.6216 22.4595 20.6216 24.7838Z" fill="#33FFFF"/>
</svg>
