<svg width="50" height="50" viewBox="0 0 50 50" fill="none" xmlns="http://www.w3.org/2000/svg">
<path fill-rule="evenodd" clip-rule="evenodd" d="M41.2126 20.6187H43.8281C44.4753 20.6187 45 21.1434 45 21.7906V28.2093C45 28.8565 44.4753 29.3812 43.8281 29.3812H41.2125C40.837 30.7762 40.2838 32.1102 39.5608 33.3648L41.4114 35.2155C41.8691 35.6731 41.8691 36.4151 41.4114 36.8727L36.8727 41.4114C36.4151 41.8691 35.673 41.8691 35.2155 41.4114L33.3648 39.5608C32.1101 40.284 30.7763 40.837 29.3812 41.2126V43.8281C29.3812 44.4753 28.8565 45 28.2093 45H21.7906C21.1434 45 20.6187 44.4753 20.6187 43.8281V41.2126C19.2236 40.837 17.8898 40.2839 16.6351 39.5608L14.7845 41.4114C14.3268 41.8691 13.5848 41.8691 13.1272 41.4114L8.58852 36.8727C8.13086 36.4151 8.13086 35.6731 8.58852 35.2155L10.4391 33.3648C9.71609 32.1102 9.16297 30.7761 8.78742 29.3812H6.17188C5.52469 29.3812 5 28.8565 5 28.2093V21.7906C5 21.1434 5.52469 20.6187 6.17188 20.6187H8.78742C9.16297 19.2238 9.71609 17.8898 10.4391 16.6351L8.58852 14.7845C8.13086 14.3268 8.13086 13.5848 8.58852 13.1272L13.1272 8.58852C13.5848 8.13086 14.3269 8.13086 14.7845 8.58852L16.6351 10.4391C17.8898 9.71609 19.2238 9.16297 20.6187 8.78742V6.17188C20.6187 5.52469 21.1434 5 21.7906 5H28.2093C28.8565 5 29.3812 5.52469 29.3812 6.17188V8.78742C30.7762 9.16297 32.1102 9.71609 33.3648 10.4391L35.2155 8.58852C35.6732 8.13086 36.4152 8.13086 36.8728 8.58852L41.4115 13.1272C41.8691 13.5848 41.8691 14.3268 41.4115 14.7845L39.5609 16.6351C40.2839 17.8898 40.837 19.2238 41.2126 20.6187ZM13.5938 25C13.5938 31.2895 18.7105 36.4062 25 36.4062C31.2895 36.4062 36.4062 31.2895 36.4062 25C36.4062 18.7105 31.2895 13.5938 25 13.5938C18.7105 13.5938 13.5938 18.7105 13.5938 25ZM15.9375 25C15.9375 20.003 20.003 15.9375 25 15.9375C29.997 15.9375 34.0625 20.003 34.0625 25C34.0625 29.997 29.997 34.0625 25 34.0625C20.003 34.0625 15.9375 29.997 15.9375 25ZM27.0613 20.6152H20.293C19.6458 20.6152 19.1211 21.14 19.1211 21.7872C19.1211 22.4344 19.6458 22.9591 20.293 22.9591H27.0613L26.7037 23.3532C26.2688 23.8325 26.3048 24.5736 26.7841 25.0085C27.0084 25.2121 27.2902 25.3125 27.5712 25.3125C27.8902 25.3125 28.2081 25.183 28.4394 24.9281L30.5748 22.5746C30.9801 22.1279 30.9801 21.4464 30.5748 20.9997L28.4394 18.6462C28.0045 18.1669 27.2634 18.1309 26.7841 18.5658C26.3048 19.0006 26.2688 19.7418 26.7037 20.2211L27.0613 20.6152ZM22.9387 29.3848H29.707C30.3542 29.3848 30.8789 28.86 30.8789 28.2128C30.8789 27.5656 30.3542 27.0409 29.707 27.0409H22.9387L23.2963 26.6468C23.7312 26.1675 23.6952 25.4264 23.2159 24.9915C22.7367 24.5566 21.9955 24.5926 21.5606 25.0719L19.4252 27.4254C19.0199 27.8721 19.0199 28.5536 19.4252 29.0003L21.5606 31.3538C21.792 31.6087 22.1098 31.7382 22.4288 31.7382C22.7097 31.7382 22.9915 31.6378 23.2159 31.4342C23.6952 30.9994 23.7312 30.2582 23.2963 29.7789L22.9387 29.3848Z" fill="#33FFFF"/>
</svg>
