<svg width="396.5" height="92.713" viewBox="0 0 370 86.517" xmlns="http://www.w3.org/2000/svg"><g fill="#8bdbf5"><path d="M23.63 35.428a4.943 4.943 0 0 0-4.94 4.86c-1.27.679-2.514 1.323-3.775 1.94-1.085.538-1.367 1.208-1.394 2.337-.132 5.478-.344 10.955-.529 16.432-.035 1.12-.07 2.24-.123 3.766-1.164-.661-1.923-1.19-2.752-1.552-2.276-.988-3.043-2.567-2.805-5.09.37-3.845.327-7.726.468-11.95-1.209.608-2.055 1.146-2.973 1.472-1.843.653-2.381 1.88-2.346 3.793.053 3.387-.08 6.783-.335 10.152-.141 1.87.265 3.07 2.046 3.978 2.232 1.146 4.296 2.628 6.439 3.951 2.231 1.385 4.472 2.76 7.03 4.34.044-1.209.07-1.985.088-2.752.238-6.986.626-13.98.626-20.965 0-2.638.564-4.455 2.76-5.53.741.44 1.606.696 2.523.696 2.725 0 4.94-2.214 4.94-4.939s-2.223-4.94-4.949-4.94m0 7.674h-.035a2.727 2.727 0 0 1-2.69-2.734 2.735 2.735 0 0 1 2.734-2.734h.009c.256 0 .494.035.732.097a2.75 2.75 0 0 1 1.993 2.637 2.75 2.75 0 0 1-2.743 2.734"/><path d="M31.655 26.431c-.97 0-1.87.283-2.637.768a168 168 0 0 1-2.778-1.835c-.997-.679-1.729-.6-2.725-.07-4.834 2.575-9.711 5.071-14.58 7.594-.997.52-1.984 1.032-3.343 1.737.01-1.34.097-2.258.01-3.157-.257-2.461.74-3.916 3.06-4.94 3.528-1.56 6.888-3.501 10.645-5.45-1.12-.759-2.002-1.226-2.743-1.87-1.473-1.288-2.804-1.156-4.454-.185-2.92 1.71-5.944 3.254-9.014 4.683-1.693.794-2.549 1.738-2.47 3.73.098 2.515-.185 5.028-.29 7.55C.22 37.617.124 40.245 0 43.243c1.068-.555 1.756-.908 2.444-1.27 6.2-3.22 12.489-6.306 18.574-9.737 2.117-1.19 3.855-1.623 5.69-.609a4.95 4.95 0 0 0 4.93 4.701c2.725 0 4.939-2.213 4.939-4.939s-2.196-4.957-4.922-4.957m2.726 5.187a2.735 2.735 0 0 1-5.46-.247 2.74 2.74 0 0 1 2.39-2.717q.172-.026.344-.026a2.75 2.75 0 0 1 2.602 1.887 2.7 2.7 0 0 1 .133.847c0 .088 0 .176-.01.256m16.238 40.475c-5.98-3.634-11.871-7.4-17.966-10.823-2.284-1.287-3.59-2.654-3.466-5.062a4.94 4.94 0 0 0 2.805-4.454c0-2.726-2.214-4.94-4.94-4.94s-4.939 2.214-4.939 4.94c0 1.684.847 3.166 2.135 4.057-.036 1.561-.08 3.07-.16 4.569-.06 1.208.38 1.79 1.35 2.363 4.71 2.796 9.376 5.672 14.06 8.512.952.582 1.913 1.164 3.219 1.958-1.147.688-1.985 1.085-2.7 1.631-1.975 1.5-3.73 1.394-5.812-.053-3.166-2.205-6.57-4.066-10.187-6.262-.061 1.35-.009 2.355-.176 3.317-.335 1.922.467 2.99 2.152 3.907 2.972 1.614 5.865 3.396 8.688 5.274 1.56 1.041 2.804 1.27 4.471.168 2.1-1.385 4.402-2.452 6.607-3.67 2.302-1.27 4.604-2.54 7.232-3.995-1.05-.635-1.711-1.04-2.373-1.437M27.051 54.488a2.74 2.74 0 0 1-2.734-2.637v-.097c0-.062 0-.115.009-.177v-.017a2.76 2.76 0 0 1 .609-1.535 2.71 2.71 0 0 1 2.116-1.006 2.737 2.737 0 0 1 2.735 2.735 2.74 2.74 0 0 1-2.734 2.734"/><path d="M70.005 42.554c-1.05.591-1.729.97-2.4 1.35-6.094 3.43-12.268 6.72-18.239 10.355-2.17 1.323-3.96 1.799-5.936.652q.027-.249.027-.511c0-2.726-2.214-4.94-4.94-4.94s-4.939 2.214-4.939 4.94a4.942 4.942 0 0 0 6.924 4.524c1.332.794 2.62 1.57 3.89 2.373 1.023.644 1.746.547 2.725-.018 4.745-2.734 9.534-5.398 14.315-8.079.979-.547 1.949-1.102 3.28-1.843.036 1.34-.026 2.258.098 3.157.335 2.452-.609 3.934-2.893 5.045-3.475 1.685-6.765 3.731-10.452 5.813 1.147.714 2.046 1.164 2.805 1.781 1.517 1.235 2.84 1.059 4.454.036 2.858-1.808 5.83-3.458 8.855-4.984 1.667-.846 2.487-1.825 2.338-3.81-.177-2.505.017-5.036.035-7.559.017-2.654.026-5.283.053-8.282m-31.488 14.58a2.745 2.745 0 0 1-2.557-1.764 2.737 2.737 0 0 1 2.558-3.704c1.208 0 2.24.793 2.601 1.878a2.742 2.742 0 0 1-2.602 3.59"/><path d="M67.28 34.44c-.168-3.378-.15-6.774-.01-10.16.08-1.87-.37-3.061-2.178-3.908-2.276-1.067-4.384-2.478-6.57-3.74-2.276-1.314-4.57-2.61-7.172-4.1v2.76c0 6.994-.158 13.988.08 20.974.088 2.47-.353 4.233-2.179 5.389a4.96 4.96 0 0 0-2.46-.662c-2.726 0-4.94 2.214-4.94 4.94s2.214 4.939 4.94 4.939 4.939-2.214 4.939-4.93a109 109 0 0 1 3.395-1.888c1.068-.574 1.332-1.253 1.315-2.382-.053-5.477-.027-10.954-.027-16.431v-3.766c1.182.626 1.958 1.129 2.796 1.455 2.302.908 3.131 2.46 2.972 4.992-.238 3.854-.061 7.726-.061 11.96 1.182-.644 2.01-1.217 2.928-1.57 1.834-.723 2.328-1.967 2.231-3.872M49.04 47.502a2.73 2.73 0 0 1-1.966 1.147c-.088.009-.177.009-.265.009a2.736 2.736 0 0 1-.132-5.468h.132a2.737 2.737 0 0 1 2.734 2.734c0 .59-.185 1.137-.502 1.578"/><path d="M46.235 30.833c.08-1.315.167-2.602.273-3.881.106-1.2-.317-1.8-1.27-2.408-4.613-2.955-9.181-5.98-13.768-8.979-.935-.617-1.878-1.226-3.149-2.064 1.173-.652 2.02-1.023 2.752-1.543 2.029-1.43 3.775-1.27 5.813.247 3.095 2.31 6.43 4.286 9.966 6.606.106-1.35.088-2.346.291-3.308.397-1.914-.37-3.007-2.02-3.969-2.919-1.71-5.75-3.59-8.502-5.556-1.517-1.094-2.76-1.367-4.463-.318-2.143 1.314-4.48 2.311-6.72 3.449-2.347 1.19-4.684 2.39-7.357 3.748 1.006.662 1.659 1.085 2.311 1.509 5.848 3.828 11.616 7.797 17.596 11.422 2.126 1.296 3.37 2.637 3.316 4.824a4.94 4.94 0 0 0-2.663 4.384c0 2.725 2.214 4.939 4.939 4.939s4.94-2.214 4.94-4.94a5.02 5.02 0 0 0-2.285-4.162m-.291 5.503c-.194.335-.45.626-.768.856a2.7 2.7 0 0 1-1.614.529 2.737 2.737 0 0 1-2.381-4.084 2.73 2.73 0 0 1 2.381-1.384c1.12 0 2.082.67 2.505 1.64.15.335.23.706.23 1.094 0 .494-.133.952-.353 1.35"/></g><path d="M104.586 5.523c-.243 1.378 0 2.27-1.297 3-.973 2.431-3.324 3.566-5.107 5.187-1.54.325-3.405 1.379-4.864.325-.892 1.216-.973 2.675-1.379 4.458 3.324 2.351 8.188-.73 11.593-1.783 1.865-1.054 3.891-2.108 5.999-3 .243-.324.73-.405.973-.648.243.73-1.46 1.135-2.027 1.702 0 .162.162.081.324.081-2.27 2.027-4.783 3.243-7.782 4.297.567 0 1.783 0 2.513-.405-.081.405-.405.486-.73.648 0 .162.487-.081.325.243-.973.325-1.865 1.297-2.351.973-.406.162-.081.324-.243.568-2.19.972-3.648 1.62-6.486 1.62-3.891-.81-4.377-4.62-3.891-8.106 1.46-4.458 4.62-9.404 9.08-11.592.81-.406 1.783-.244 2.594-.244.648.081.81.568 1.378.649.162.973.81 1.46 1.378 2.027m-6.323 1.459c.324.08.567-.568.81-.243-1.378 1.053-2.594 2.188-3.648 3.567 2.676-1.379 5.108-3 6.648-5.432-1.378.568-3 .973-3.81 2.108m-.487.324c.081.081 0-.081 0 0m-.648 12.566c.243.08.567-.163.486.486.406-.243.649-.405 1.054 0 .162-.162-.162-.486.162-.486.568 0 1.54-.406 2.027-.73-1.216.648-2.756.243-3.73.73m13.701-6.972c.162 0 0-.081 0 0m0 0c0 .162-.162.08 0 0m-7.54 6.323c.163-.324.163.405 0 0m24.402-3.73c.081 0 .081-.08.081-.08-.08-.162-.08 0-.08.08-.325.244-.974.406-.893.73-.324.406-.81.406-1.297.73-3.323 2.108-7.539 9.08-12.24 7.215-.163-.567-.487-.973-.65-1.46 0-.404-.324.163-.324-.161-.243-.406-.405-.81-.648-1.216 1.135-5.675 4.215-9.404 7.215-13.376 1.135-.892 2.513-1.946 4.377-1.946 1.784.405 3.892.973 4.216 3.162.162 1.216-.324 2.026-.81 2.837.648 0 1.377-.649 2.431-.486 1.46.567 1.703 3.567.649 4.62.73 1.216-.73 3-.162 4.378 8.106-1.297 12.646-7.053 17.591-11.836-.567 4.297-4.945 6.486-7.782 9.404-1.865 1.054-3.243 2.027-5.27 2.918.163.244.487-.243.811-.162-.081.244-.405.162-.405.406 3.323-1.135 5.431-3.892 8.269-5.189-.081-.243-.325.081-.487 0 .162-.243.406-.73.568-.162.243-.567 1.135-1.54 2.27-1.783-3.486 4.215-7.945 7.053-13.295 9.566-.73.08-1.298-.162-2.027-.162-1.216-.406-1.621-1.054-2.189-2.108-.081-1.622-.162-4.135.081-5.918m-12.89 5.594c4.135-2.027 6.729-5.432 10.053-8.27-.649-.567-.243-2.512-.406-3.242-5.35 1.702-7.296 6.81-9.647 11.512m31.373-10.54c.081.325.244-.405 0 0m-.486.568c.162.162.324-.08.405-.324-.243.081-.486.081-.405.324m-9.81 7.702c-.08-.162-.242-.162-.242 0-.244-.081-.325.08-.406.243.244 0 .325-.162.406-.243zc-.161.324-.567.405-.89.567 0-.162.404-.324 0-.324-.163.324-.325.81-.812.405-.08.243-.324.649 0 .649 4.378-2.27 8.594-5.27 11.43-8.918-3.16 2.676-6.08 5.513-9.727 7.62m-9.566-5.512c-.324.486.567.162 0 0m-.649.649c.081.162.649-.163.325-.325 0 .244-.406 0-.325.325m-.486.486c-.243-.081-.405.324-.243.324 0-.162.243-.08.243-.324.081 0 .081.081.162.081.081-.081.081-.162.081-.324q-.243 0-.243.243m.486.243c0 .081-.08 0 0 0m-2.35 1.297c-.244.325.324-.243 0 0m-.325.243c.081.082 0 0 0 0m3.324 0c.486.163.081-.243 0 0m-.405.325c.405.08 0-.325 0 0m8.674 2.918c.08.081-.081 0 0 0m-20.348.162c.405.162 0-.243 0 0m-.081.487c-.162.243-.568.73-.405.891.162-.243.405-.405.405-.891.162 0 0-.081 0 0m19.294 1.297c.162-.081.486-.081.567-.324-.324 0-.648 0-.567.324m-19.78-.081c-.244.324.324-.243 0 0m19.942.405c.324-.162.73-.162.81-.486-.324.08-.648.162-.81.486m-19.943 0c.163-.324-.405-.324-.405-.162.162 0 .243.162.405.162m32.103-8.917c.243.162-.081.486-.324.405.08-.162.324-.162.324-.405m-.162.73c.081.324-.568.486-.486.08.162.081.162-.162.486-.08m-.973.161c.081-.324.081.406 0 0m-9.08 6.81c0 .243-.324.162-.324.324-.243-.08.162-.324.325-.324m28.697-7.215c0 .081 0 .243.163.243.08 0 .08-.08.162-.08.08-.244-.162-.163-.325-.163 2.19-2.027 4.54-3.648 6.729-5.594.081.163.162.325.405.325-.405 1.378-.891 2.432-2.107 3-.163.323.162.161.324.161-.324.487-.81 1.135-1.216.973-.243.081.08.162 0 .405-.892.325-1.378.568-1.784 1.46-1.135.08-2.026 1.216-3 1.783.73.405.974-.892 1.946-.892.082.244-.162.163-.162.406.244 0 .244-.325.649-.243 0-.325-.243-.325-.081-.649.73.324.973-.649 1.702-.649v.568c-.486 0-.81.648-1.216.405 0 .162.081.325.162.325-1.864 1.945-4.702 3.404-6.728 5.026-.081 0-.081-.162-.162-.243-3.162 2.918-7.215 4.945-10.215 8.025.243 3.648 1.703 7.62 1.135 11.755-.324 1.378-1.135 3.08-2.027 4.459-1.702 1.459-4.458 3.404-7.458 2.35-2.189-1.297-3.242-3.729-3.972-6.404-.162-1.135-.324-1.945 0-2.918 1.865-4.864 5.513-8.269 9.08-11.836.08-.892-.163-1.702-.082-2.675h.325c-.406-2.838.162-5.756.243-9.566 1.297-2.756 1.864-5.594 4.296-7.215 1.54.648 3.324 1.46 2.757 3.324-1.054-.081-1.54.405-2.027.81-2.35 4.783-3 8.35-2.432 13.7 3.243-2.107 6.566-4.863 9.81-6.647 0-.162-.163-.162-.082-.324.973-.324 1.216-1.297 2.513-1.378 0-.162-.162-.243 0-.325.324 0 0 .082.081.325.973-.73 1.297-1.622 2.594-2.027m5.837-4.378c.081 0 0-.08 0 0m-.243.568c-.081-.324.162-.324.162-.486-.324-.082-.486.405-.162.486m-.567.162c-.244.324.324-.243 0 0m-.406.324c-.162.081 0 .081 0 0 .081-.08 0-.162 0 0m.649.244c.243.08.486-.244.243-.244-.081.162-.324.081-.243.244m-.649.405c0 .162 0 .243.081.324-.567.162-.73.405-1.054.892.811-.162 1.216-1.054 1.46-1.297-.081-.243-.325.08-.487.08m-1.378.406c-.405.243-.81.487-1.054.892.406-.243.81-.486 1.054-.892.162.081.405-.243.162-.324 0 .162-.162.162-.162.324m.162.973c.162.405.162-.405 0 0m-.973.892c.163-.243.406.08.73 0-.324-.406 0-.406.081-.81-.324.161-1.054.404-.81.81m-1.703.08c-.162.082 0 .082 0 0 .324-.08.486-.323.73-.486-.163-.162-.649.244-.73.487m.973.162c.243.081.162.405.486.324 0-.324-.243-.324-.405-.486 0 .08-.081.08-.081.162m-1.378 1.135c.648.08.891-.973 1.378-.405.08-1.379-1.216 0-1.378.405m-.973-.324c.162 0 .243-.081.324-.163-.243 0-.324.082-.324.163m-.324.162c-.325-.243-.244.405 0 0m.486.81c-.405 0-.649.244-.73.568-1.053.081-1.62.648-2.188 1.216.324.162.405-.081.648.162.162-.649.73-.973 1.46-1.135-.811 1.784-2.676 2.027-3.81 3.567 1.215-.73 2.512-1.378 3.485-2.432-.243-.162-.324.405-.405.081.324-.324 1.459-.324 1.297-.892-.081.406-.406.081-.406-.162.244-.243.892-.567.649-.973.405 0 .567-.486.81-.324-.08-.567-.648-.08-.891 0 0 .162.081.162.081.324m.324.081c.081.406.081-.405 0 0m2.027 0c.162.406.162-.405 0 0m-1.54.892c.08.081-.081 0 0 0m-4.459.487c.324 0 .405-.325.567-.487-.324.081-.567.162-.567.487m1.946.08h.162v-.161h-.162zm-2.19.082c.082.08 0 0 0 0m-.486.243c.406.081.081-.324 0 0m.892.405c.324 0 .568-.08.487-.405-.244 0-.487.081-.487.405m.81-.162c.082.324.244-.324 0 0m-8.754 6.972c.486-.081.486-.73.891-.892.081.162-.324.324 0 .406 0-.244.325-.082.243-.406h-.243c.162-.324-.405-.73.243-.81.163.162 0 .324-.08.486.324-.162.486-.162.324.243.81-.405 1.378-1.135 2.188-1.46 0-.323-.486-.242-.567-.485.162-.244.324-.487.649-.487.08.162-.487.324-.163.568 1.054.162 1.379-.973 2.351-1.216-.162-.325.244-.568.244-1.054.486-.081 1.62-.973 1.783-1.378 0 .243-.243.243-.324 0 0-.244.405-.082.324-.325-.648.325-1.378.487-1.621 1.135 0 .162.243 0 .243.162-.162.081-.243.244-.568.244-.486-.406-2.026.73-2.432 1.378.163 0 .487-.162.487.08-.162 0-.162.163-.324.163-.163-.081-.325-.243-.649-.162-.243.162-.324.973-.567.73 0-.163.243-.082.162-.325-.73.405-2.351 1.216-1.946 1.946-1.297-.487-1.946.81-1.946 2.026.406.081.163-.486.568-.405 0 .243-.162.324.162.405.162-.162.243-.405.568-.405zm8.187-6.648c-.243.325.325-.243 0 0m.649.081c-.243.325.324-.243 0 0m-2.594 1.784c0 .081-.081-.081 0 0m.08.243c-.242.324.325-.162 0 0m-12.078 5.675c.08-.487 0-1.378-.162-1.865.08.73-.081 1.378.162 1.865m3.81-1.297h.162v-.162h-.162zm-.892.405c-.08.73.568.73.081 1.297.243-.08.325 0 .325.243.567-.243 1.378-.81 1.459-1.216-.162.163-.243.325-.487.406 0-.487 0-.649-.243-.892-.162.243.162.405-.081.567-.081 0-.162-.405-.243-.08.162.08-.081.567-.243.567 0-.243-.244-.324-.244-.568.244-.08.325-.486.487-.73-.405.082-.487.325-.81.406m.567.324c.08.081 0-.08 0 0m-.406 1.46c.081.08 0-.081 0 0m-4.053.891c-.243-.08-.324.081-.405.244.243 0 .324-.163.405-.244.243 0 .324-.162.405-.324-.243 0-.324.162-.405.324m-.81.811c0-.081.242-.081.242-.243h-.324c0 .08 0 .243.081.243m-1.54 1.135v.162h.324v-.324h-.243c0 .08 0 .162-.081.162m-1.054 1.54h.162c0 .081.081.081.162.081-.08-.486.406-.567.487-.972-.406.162-.73.405-.81.891m-2.109 12.16c1.46 1.135 3.73-.162 5.108-.81 3.08-2.27 3.486-7.945 2.35-12.08 0 0 0-.08-.08-.08-3.162 3.242-7.297 6.728-7.378 12.97m2.027-11.998c-.243.325.324-.243 0 0m-1.297 1.46c.486-.244 1.135-.811.973-1.379-.243.568-.81.73-.973 1.379m-.162.324c.08.08-.081-.081 0 0m-.324.243c.08.081 0 0 0 0m-.568.973c.324-.081.487-.324.568-.73-.406 0-.406.487-.568.73m-.405.324c.486.162-.081.162-.081.487.405 0 .405-.325.486-.649-.243-.081-.405 0-.405.162m-.243.892q.243 0 .243-.243c-.162.08-.324 0-.243.243m-.487.892c.243.08.243-.568.081-.487.081.243-.162.243-.08.487m8.43 5.999c.081.08-.08 0 0 0m1.46 2.026c.08.081-.082 0 0 0m21.32-31.697c-.081.324-.405.405-.567.567-.163-.486.324-.405.567-.567m-.567.81c-.163.65-.73.892-1.379 1.055-.324-.73.73-.892 1.379-1.054m-2.919 1.459s-.08-.081 0 0m-.81.567c.08.081-.082-.08 0 0m-6.324 3.162c.325-.162-.243.324 0 0m-.973 1.216c0 .324-.891.324-.567.649 0 .243-.486 0-.324.324-.487-.406.486-.81.891-.973m-1.297.243c.244-.324.162.324 0 0m-1.621.892h.162v.243h-.162zm-.973.892c-.162.486-.648.73-1.054.972.244-.405.649-.73 1.054-.972m.649.08c.08.082 0 0 0 0m-.325.73c-.08.081-.162.162-.324.162-.08-.243.162-.162.324-.162m-2.107.73c.08.081 0 0 0 0m-.487.081c.487-.486-.324.405 0 0m.487.162c.08-.08.08 0 .162.081v.162c-.243-.162-.243.081-.405-.08 0-.163.243 0 .243-.163m-1.135.568v-.325c.162 0 .243.162.162.406-.081 0-.081-.081-.162-.081m.892.405c-.244-.081-.649-.405-.325-.649.243.081.325.325.325.649m-.892-.405c0 .08-.081.162-.081.243-.243.08-.162-.406.08-.243m36.481-2.595c5.026-4.215 9.971-8.43 15.079-12.484.972.162 1.945.487 2.107 1.621-5.431 5.756-11.998 10.377-17.672 15.89 0 2.675-.325 4.864-.325 7.377-1.378 11.673-3 22.86-6.81 32.67-.81 3.729-2.431 7.134-4.134 9.89-3 5.188-6.647 10.782-14.51 10.539-.568-.243-1.379-.568-1.946-.649-.081-.162-.244-.243-.162-.567-3.324-1.216-4.621-5.107-5.756-8.674-.892-5.756 1.378-10.458 3.242-14.917 2.19-5.188 4.702-10.295 7.945-14.349 4.702-7.944 10.944-14.268 16.78-20.996 1.217-.81 2.109-1.946 3.081-2.919.244-4.134.406-8.43.811-12.484-3.648 2.837-6.647 7.134-11.187 9.323-6.648-.973-2.108-9.16-1.135-13.052 4.378 1.216 1.054 6.81.324 9.485 4.621-2.756 8.593-6.81 12.485-10.62.972-.73 2.107-.162 2.513.81.08 4.216-.811 9.648-.73 14.106m13.781-10.538c.325-.243 1.216-.811.973-1.054-.324.405-.891.486-.973 1.054m1.54.162c-.08-.324.325-.162.244-.487-.324-.243-.324.163-.568.325-5.026 3.89-10.133 8.43-15.16 12.646 0 .487 0 .973-.08 1.378 1.054-.73 2.027-1.378 2.675-2.432.892-.243 1.784-1.216 2.27-2.188 1.54.243 2.108-2.595 3.729-2.595 1.946-2.675 5.756-4.864 7.864-7.296-.082.162-.163 0-.325 0-.08.325-.243.568-.648.649m-3 1.135c.325-.487 1.216-.81 1.135-1.297-.243.567-1.135.486-1.135 1.297m-.73.567c.163.325.244-.405 0 0M198.3 13.71c.08-.243.567-.567.162-.73-.081.163-.487.487-.162.73m.486-.648c0 .08-.081 0 0 0m-1.865 1.702c.244-.405.811-.486.973-.891-.486.162-.891.324-.973.891m-.405.162c.324.163.324-.405 0-.243zm-1.864 1.46c.567-.325 1.62-.73 1.54-1.379-.487.487-1.054.892-1.54 1.379m0 .324c-1.54.162-3 2.756-4.621 3.162-.243 1.297-2.189 1.378-2.108 2.675.973-.406 1.297-1.865 2.27-1.865.081-.405.243-.81.648-.486 1.054-1.46 2.514-2.351 3.81-3.486m-11.106 8.917c.244.649-.567.73-.648 1.297-.243.081-.243-.162-.487-.08-.648.567-1.216 1.215-1.945 1.783.648.08 1.297-.73 1.783-1.216.081.08 0 .324.244.243.972-.324 1.216-2.108 1.864-1.946.162-.162.568-.648.324-.972-.405.324-.73.648-1.135.891M167.98 47.03c0 .486-.324.486-.324.973-.243.08-.73.486-.324.567.081-.162.324-.243.324-.567.487-.406.973-.892 1.135-1.622-.486 0-.405.568-.81.649.405-.73.891-1.378 1.378-1.946 0 .487-.406.568-.487.973 2.351-2.27 3.81-5.27 6.161-7.458-.324-.486.325-.486.081-.81-.405.486-.81 1.053-1.297 1.459.973-1.46 2.027-2.838 3.243-4.054 0 .243-.243.243-.162.568.324-.081.81-.568.648-.892-.08.162-.162.324-.486.324.892-1.216 2.027-2.594 3-3.324-.082.406-.487.487-.568.892.568-.243.73-.892 1.297-.81-.73-.325 1.378-1.46.568-1.622.405-.243.486-.73.972-.892-.08.163-.324.163-.243.487.81-.487 1.46-1.054 1.865-1.946-.649.162-.81 1.216-1.378 1.135.324-1.297 2.594-1.702 1.864-3-.324.568-1.216.973-1.216 1.541-.892.567-2.35 1.865-2.675 2.918-8.674 8.756-15.484 18.889-21.32 30.4-.568 2.027-1.136 2.838-1.622 4.54 2.027-3.89 4.053-8.512 6.404-12.322v.405c1.297-1.378 1.865-2.756 2.838-4.377-.892.405-.892 1.783-1.784 2.189.81-1.46 1.784-3.08 2.918-4.378m14.998-20.43c0-.162.162-.486-.162-.405 0 .243 0 .405.162.405m-.892 1.297c.081.081 0-.08 0 0m-.973 1.054c.487-.162.73-.486.892-.892-.405.162-.567.568-.892.892m-9.322 14.592c0 .324-.162.405-.162.81-3.162 3.406-5.432 7.864-8.026 11.674-2.837 6.648-6.323 11.998-6.89 20.754-.406.162-.082 1.216-.487 1.702-.162-.162.162-.892-.243-.892-.244 1.216.243 2.351.567 3.405 1.621 2.432 5.756 3.243 8.836 1.622 8.026-4.54 10.782-13.62 13.944-22.7 2.027-8.998 4.62-19.374 5.107-30.967 0-.081 0-.081-.08-.081-4.297 4.702-8.432 9.728-12.566 14.673m7.62-13.538c.405 0 1.135-.649.649-.892-.163.406-.649.406-.649.892m1.054-.73c.08 0 0-.08 0 0m-.162.811c-.162-.243.405-.324.08-.486 0 .162-.405.405-.08.486m1.54.324c0-.162.405-.324.081-.405 0 .162-.405.324-.081.405m-3.486.81c.405 0 .243-.648.81-.404.082-.244.406-.487 0-.568-.08.405-.81.324-.81.973m1.297-.81c.081.08 0-.082 0 0m-.162.324c.405.08 0-.325 0 0m2.027.243c.405.08.08-.243 0 0m-3.567.567c.324 0 .405.243.486-.08-.162-.163-.405-.082-.486.08m.73 0c.243 0 .324-.08.324-.162-.162 0-.244.081-.325.162m-.243.243v.163c.243.162.243-.325.081-.244 0 0 0 .081-.08.081m-1.217.487c.324 0 .649-.081.649-.406-.325.082-.487.163-.649.406m.892 0c-.243.324.324-.243 0 0m-1.216.567h-.162c-.081.081-.081.487.162.487zc.243 0 .486 0 .486-.162-.243-.243-.486-.08-.486.162m.81-.162c-.08.568.082-.405 0 0m1.703.568v.08c.243.082.405-.243.081-.161v-.325c-.243.162-.567.243-.567.649.324.162.324-.162.486-.243m-3.162.486c-.405 0 0 .324 0 0 .081 0 .162.081.244.081 0-.243.243-.567-.082-.567-.08.08-.162.243-.162.486m.73 0c.162.081.405-.243.162-.324 0 .162-.243.08-.162.324m-.243 0c.162.324.162-.405 0 0m.973 1.054c.324-.243 1.135-.487.972-.81a.174.174 0 0 1-.162.161c0-.243-.08-.324-.162-.324-.243.324-.405.649-.648.973m-2.432-.081c-.487.324-1.216 1.054-1.135 1.621.648-.243.73-1.054 1.297-1.46-.081-.08-.162-.08-.162-.161h.486c.162-.243.243-.406.243-.81-.405.08-.405.242-.324.567-.162.08-.487-.081-.405.243m.648.243c.243-.162.81-.486.568-.81-.082.324-.649.324-.568.81m-.405.405c.243.406.162-.324 0 0m-.406.811c0-.162.406-.567 0-.486.081.162-.243.405 0 .486m-1.053 1.216c.162-.324 1.134-.892.648-1.216 0 .567-.892.73-.648 1.216m2.188-1.054c.162.324.244-.405 0 0m-.81 1.216c-.162 0 0 .081 0 0 .324-.243.73-.486.81-.892-.567 0-.567.568-.81.892m-3.892 1.784c.973-.081 1.379-1.703 2.19-2.432-.892.243-1.622 1.621-2.19 2.432m1.46-.811c.243 0 .567-.486.324-.649-.081.244-.324.325-.324.649m-2.19 1.702c.406.325 1.055-.567.406-.648-.08.243-.324.405-.405.648m1.297-.486h-.081c-.081.081-.162.162-.162.324-.243 0 .162.406 0 0 .162-.08.243-.162.243-.324.405.081 0-.243 0 0m-1.784 1.054c.325 0 .568 0 .568-.324-.243-.244-.486.08-.568.324m1.298-.324c.08.324.08-.406 0 0m-1.298.567c-.08 0-.08-.081-.162-.081-.243.081.162.324.162.081m.73.081c0 .081-.081-.08 0 0m-.243.324c.405.081.08-.324 0 0m-6.242 7.783h-.081c-.892 1.459-1.703 2.432-2.432 4.053-.406.487-.892 1.46-.892 2.108.405-.649.648-1.378.892-2.108 1.216-.81 1.378-2.675 2.513-3.486zc.972-.487.73-1.622 1.702-2.108 0-.162 0-.324-.081-.486 1.54-1.297 2.675-3.324 3.972-5.189-2.189 2.19-4.053 4.864-5.593 7.783m19.294-7.54c.08.082 0 0 0 0m-13.457.244c.08 0 0-.081 0 0m13.943 1.54c-.081.568.081-.405 0 0m-.81.081c.162.324.243-.405 0 0m.81.487c-.243.324.324-.244 0 0m-.081.486c.081.081-.081-.081 0 0m-1.46 3.243h.406c-.162-.73.487-1.622.081-2.351-.243.73-.162 1.621-.486 2.35m1.135-1.134c0-.162.324-.568 0-.649.162.324-.243.568 0 .649m-1.46.81c.163.406.163-.405 0 0m-.08.325c.08 0 0-.081 0 0m.405.73c.324 0 .405-.65.08-.65-.161.244 0 .325-.08.65m.73-.163c.324.162.324-.405.162-.405 0 .162-.163.243-.163.405m-1.135.243c.082.081 0 0 0 0m-15.564.244v.162c.162.324.324-.162.405-.244-.162-.08-.243.082-.405.082m15.402 0c-.08.567 0-.406 0 0m-.73 6.08h-.08c-.081.648-.325.81-.568.972 0 .406.324-.162.243.162-.73 2.919-1.378 6-2.432 8.594h-.324c.081-.406-.324 0 0 0 0 .324-.567-.081-.405.324.08.324.567 0 .648.162-.324.649-.405 1.54-.891 2.108-.163-.325-.163.405-.568.08 0 .163-.405.568-.162.73.081-.567.486-.405.73-.73.08.325 0 .811-.325.568.487.73-.486 1.054-.405 1.946-.243 0-.324 0-.324.162-.244.243 0 1.054-.487 1.297-.243-.081-.324-.405-.567-.486.162.405-.406.567-.081.81.162-.567.243 0 .648-.243-.81.568 0 1.703-1.216 2.27 0 .324.325-.243.243.081-1.459.973-1.702 3.162-2.918 4.459.243.08.324-.243.405 0-.162.243-.243.405-.567.243-.568.892-1.297 1.54-1.865 2.432-.486.162-.73.486-.891 1.054.648.081.648-.486 1.054-.568.08-.324-.244-.243-.163-.486.244-.081.244 0 .406.081-.081-.324.324-.973.567-.892 0 .163-.243.081-.162.406-.162 0 0 .08 0 0 .324-.162.568-.406.649-.811-.163-.081-.325.324-.406 0 .73-.081 1.378-.81 1.54-1.702h.244c.162-.487.973-1.135.486-1.622.324 0 .162-.567.487-.648.162.243-.244.486 0 .567 2.188-3.729 3.566-7.782 5.269-12.16 0 .081.081.162.162.243.243-.324.081-.324.324-.648-.324 0-.324.324-.486.405.567-2.756 1.702-6.08 2.189-9.16.648-2.027.973-3.892 1.378-6.162-.649.325 0 1.946-.892 2.108.568 1.054-.486 2.594-.486 4.054m1.945-5.675c.325.08.325-.649 0-.487zm-.405 1.54c.405.081.081-.324 0 0m-.081.568c.324 0 .405-.406.081-.406 0 .162-.081.162-.081.406m-20.429 0c.324.324.162-.325 0 0m18.889 1.297c.243 0 .324-.162.324-.406-.243-.08-.324.081-.324.406m.972 1.216c.325.08.244-.244.406-.406-.162 0-.162-.08-.324-.08.08.242 0 .405-.082.486m-1.134.243h.162v-.243h-.162zm.81-.162c.081.08 0 0 0 0m-1.054.162c.162.324.162-.405 0 0m-17.51.243h.324c0-.162-.081-.243-.324-.162zm18.888-.081c.082.405.082-.405 0 0m-1.459.081c.081.081 0 0 0 0m-17.672.973c0-.243.648-.73.162-.892 0 .324-.406.649-.162.892m17.51-.405c.243.162.243-.406.081-.325 0 .162-.08.162-.08.325m-17.025-.163c.081.406.081-.405 0 0m-3.162 1.135c.325.081.406-.162.406-.324-.325-.081-.243.243-.406.324m2.19.244c0-.163.405-.568 0-.568.08.243-.325.405 0 .568m19.293-.487c.162.324.243-.405 0 0m-1.54.081c.162.406.162-.405 0 0m1.46.406c.08.08 0-.082 0 0m-19.538.162c.081.405.081-.406 0 0m18.159.324c.081.081 0-.081 0 0m1.297.081c.081.405.081-.405 0 0m-19.942.486c.08 0 .162.081.162.081 0-.162.08-.324-.162-.243zm-1.865 0c.081.081 0-.08 0 0m21.32 0c.082.081 0-.08 0 0m-1.134.081c0 .082-.081 0 0 0m-.243.244v.162c.243.162.324-.324.08-.324 0 .08 0 .162-.08.162m-20.51.972c0-.243.486-.486.162-.648 0 .162-.487.405-.162.648m20.347 0c.325.082.163-.324.244-.405-.244-.08-.244.162-.244.405m1.54-.162c.082.406.082-.324 0 0m-.08.487c.08.405.08-.325 0 0m-.325 1.135c.162.324.162-.406 0 0m-1.54.08v.082c-.243.567.486-.568 0-.081m1.135.162h-.081c.081.081 0 .081-.081.081v.243c.243 0 .162-.162.162-.324.162-.081 0-.081 0 0m-1.216.405h.162v-.162h-.162zm1.46-.08c.08.08-.082-.082 0 0m-.487.972c-.081-.243.324-.405-.081-.405 0 .162-.081.324.08.405m.244-.324c.162.405.162-.406 0 0m-1.54.567c.324 0 .405-.567.08-.567-.08.162-.08.324-.08.567m1.378 0c.08.406.08-.324 0 0m-.405.243c-.325.406.243-.324 0 0m-1.135.163c-.244.324.324-.244 0 0m1.459 0c.08.08-.081 0 0 0m-1.54.486c.08.405.08-.405 0 0m-.163.324c-.162.324.406-.243 0 0m-.243.892c.081.324.081-.405 0 0m.892 1.135c0-.081 0-.081.081-.081 0-.162 0-.243-.243-.243.08.162 0 .324.162.324m-.405.81c.324.082.405-.567.162-.648-.081.243-.162.405-.162.649m-1.054-.406c0 .081-.081-.08 0 0m.243.081c.081.081 0-.08 0 0m-.081.487c.08.08 0-.081 0 0m-20.753 1.135c0-.406.567-.973.162-1.135-.081.324-.406.81-.162 1.135m20.429-.73c.08.081 0-.081 0 0m1.297.081h.162v-.162h-.162zm-.487.649c-.162.162-.405.648-.162.81.081-.243.243-.405.162-.81h.081c.081 0 .244-.406 0-.487.081.243-.162.243-.08.487m-21.727 1.135c-.243 0 .162.405 0 0 .243-.163.324-.487.324-.811-.324 0-.243.405-.324.81m20.348.082c.081.08 0-.081 0 0m-.648.648c.243.081.405-.567.162-.648 0 .243-.081.405-.162.648m.567-.162c0-.081.243-.405 0-.405.081.162-.324.324 0 .405m.892-.243c.08.405.08-.324 0 0m-.081.324c-.081.568 0-.405 0 0m-1.865 1.621c.162-.324.243-.648.405-.972-.405.08-.81.81-.405.972m-.973 2.108h-.08c-.082 0-.244.324 0 .324.08-.08.08-.162.08-.324.162-.243.73-.648.244-.81.162.486-.325.324-.244.81m-.567.973c.162 0 .405-.405.162-.405-.081.162-.162.243-.162.405m-.649 1.216c.081-.081.406-.324.162-.486.082.243-.405.324-.162.486m-.243.567c.162.082.405-.243.162-.243 0 .081-.162.162-.162.243m-.567.973c.243.081.567-.486.162-.486 0 .243-.162.324-.162.486m-.325.406h.163v-.163h-.163zm-.162.81c0-.243.081-.243.162-.567-.324-.081-.567.486-.162.567m-.405.162c.162.325.243-.405 0 0m-.486 1.054c.08-.243.243-.324.405-.567-.162 0-.243-.162-.405-.081.08.324-.487.486 0 .648m1.62-.486c.082.081 0 0 0 0m-2.674 1.702c.162-.405.891-.648.648-1.054-.162.325-.892.649-.648 1.054m1.135.406c.162.324.243-.406 0 0m-4.46 2.594h-.242v.162c.243.081.243-.081.243-.162.648-.324 1.216-.73 1.46-1.46-.568.406-.974.973-1.46 1.46m-3.243.648c-2.108.892-3.729.162-5.593-.243.891 1.216 4.053 1.378 5.593.243m39.156-72.798c-.081.324-.568.243-.73.567-.162-.243.162-.73.73-.567m-1.865 1.46c.243-.325.73-.893.973-.811a1.9 1.9 0 0 1-.973.81m0 0c-.081.243-.324.406-.567.487.162-.244.162-.487.567-.487m-8.269 7.296h.162v.162c-.08 0-.08 0-.08.081h-.163v-.162c.081 0 .081-.08.081-.08m-10.538 7.62c.08-.244.405.162 0 0m-.163 2.27c0-.163 0-.325.163-.325 0 .162-.082.243-.163.324m-1.216 1.135c.244-.324.163.325 0 0m-.162.244c0 .486-.486.405-.567.891-.243-.324.243-.81.567-.891m-1.54 2.432c.081 0 .081 0 .081-.081-.081-.082-.081 0-.081.08m-5.594 6c.081.243-.08.324-.243.405 0-.243.162-.324.243-.405m-.324.486c0-.081 0-.081.081-.081 0 .081 0 .081-.08.081m0 0c0 .162-.163.081 0 0m-.325.243c.08.406-.487.973-.892 1.216.243-.486.649-.81.892-1.216m-3.81 5.107c.81-1.216 1.864-2.756 2.756-3.567-.81 1.298-1.621 2.595-2.756 3.567m-2.351 2.838c.08.08 0-.081 0 0m-2.027 3.567c.486.162 0 .486-.081.73-.324-.244.081-.487.081-.73m-.486.73c.324.243-.163.486-.163.729-.486-.162.082-.486.163-.73m12.16 17.754c.162 0 .08.162 0 0m-2.513 5.188c.243-.405.162.325 0 0m-1.297 2.757c-.163 0-.163-.081-.082-.244.082 0 .163.081.082.244m-.973 1.216c.162-.081 0-.081 0 0m0 0c0 .405-.406 0 0 0m50.1-65.827c0 .081 0 .243.161.243.081 0 .081-.08.163-.08.08-.244-.163-.163-.325-.163 2.19-2.027 4.54-3.648 6.729-5.594.08.163.162.325.405.325-.405 1.378-.892 2.432-2.108 3-.162.323.163.161.325.161-.325.487-.811 1.135-1.216.973-.244.081.08.162 0 .405-.892.325-1.378.568-1.784 1.46-1.135.08-2.026 1.216-3 1.783.73.405.974-.892 1.946-.892.081.244-.162.163-.162.406.243 0 .243-.325.649-.243 0-.325-.243-.325-.081-.649.73.324.972-.649 1.702-.649v.568c-.486 0-.81.648-1.216.405 0 .162.081.325.162.325-1.864 1.945-4.702 3.404-6.728 5.026-.081 0-.081-.162-.163-.243-3.161 2.918-7.214 4.945-10.214 8.025.243 3.648 1.702 7.62 1.135 11.755-.324 1.378-1.135 3.08-2.027 4.459-1.702 1.459-4.458 3.404-7.458 2.35-2.189-1.297-3.243-3.729-3.972-6.404-.162-1.135-.324-1.945 0-2.918 1.864-4.864 5.512-8.269 9.08-11.836.08-.892-.163-1.702-.082-2.675h.325c-.406-2.838.162-5.756.243-9.566 1.297-2.756 1.864-5.594 4.296-7.215 1.54.648 3.324 1.46 2.757 3.324-1.054-.081-1.54.405-2.027.81-2.351 4.783-3 8.35-2.432 13.7 3.243-2.107 6.566-4.863 9.809-6.647 0-.162-.162-.162-.081-.324.973-.324 1.216-1.297 2.513-1.378 0-.162-.162-.243 0-.325.324 0 0 .082.081.325.973-.73 1.297-1.622 2.594-2.027m5.837-4.378c.081 0 0-.08 0 0m-.243.568c-.081-.324.162-.324.162-.486-.324-.082-.486.405-.162.486m-.568.162c-.243.324.325-.243 0 0m-.405.324c-.162.081 0 .081 0 0 .081-.08 0-.162 0 0m.649.244c.243.08.486-.244.243-.244-.081.162-.324.081-.243.244m-.649.405c0 .162 0 .243.081.324-.567.162-.73.405-1.054.892.81-.162 1.216-1.054 1.46-1.297-.082-.243-.325.08-.487.08m-1.378.406c-.405.243-.81.487-1.054.892.405-.243.81-.486 1.054-.892.162.081.405-.243.162-.324 0 .162-.162.162-.162.324m.162.973c.162.405.162-.405 0 0m-.973.892c.162-.243.406.08.73 0-.324-.406 0-.406.08-.81-.323.161-1.053.404-.81.81m-1.702.08c-.162.082 0 .082 0 0 .324-.08.486-.323.73-.486-.163-.162-.65.244-.73.487m.973.162c.243.081.162.405.486.324 0-.324-.243-.324-.405-.486 0 .08-.081.08-.081.162m-1.378 1.135c.648.08.891-.973 1.378-.405.08-1.379-1.216 0-1.378.405m-.973-.324c.162 0 .243-.081.324-.163-.243 0-.324.082-.324.163m-.325.162c-.324-.243-.243.405 0 0m.487.81c-.405 0-.649.244-.73.568-1.054.081-1.621.648-2.189 1.216.325.162.406-.081.649.162.162-.649.73-.973 1.46-1.135-.811 1.784-2.676 2.027-3.811 3.567 1.216-.73 2.513-1.378 3.486-2.432-.243-.162-.324.405-.405.081.324-.324 1.459-.324 1.297-.892-.081.406-.406.081-.406-.162.244-.243.892-.567.649-.973.405 0 .567-.486.81-.324-.08-.567-.648-.08-.891 0 0 .162.08.162.08.324m.325.081c.081.406.081-.405 0 0m2.027 0c.162.406.162-.405 0 0m-1.54.892c.08.081-.082 0 0 0m-4.46.487c.325 0 .406-.325.568-.487-.324.081-.567.162-.567.487m1.945.08h.163v-.161h-.163zm-2.188.082c.08.08 0 0 0 0m-.487.243c.406.081.081-.324 0 0m.892.405c.324 0 .567-.08.486-.405-.243 0-.486.081-.486.405m.81-.162c.082.324.244-.324 0 0m-8.755 6.972c.487-.081.487-.73.892-.892.081.162-.324.324 0 .406 0-.244.324-.082.243-.406h-.243c.162-.324-.405-.73.243-.81.162.162 0 .324-.08.486.324-.162.486-.162.324.243.81-.405 1.378-1.135 2.188-1.46 0-.323-.486-.242-.567-.485.162-.244.324-.487.648-.487.081.162-.486.324-.162.568 1.054.162 1.378-.973 2.351-1.216-.162-.325.243-.568.243-1.054.487-.081 1.622-.973 1.784-1.378 0 .243-.243.243-.324 0 0-.244.405-.082.324-.325-.649.325-1.378.487-1.621 1.135 0 .162.243 0 .243.162-.162.081-.243.244-.568.244-.486-.406-2.026.73-2.432 1.378.162 0 .487-.162.487.08-.162 0-.162.163-.325.163-.162-.081-.324-.243-.648-.162-.243.162-.324.973-.568.73 0-.163.244-.082.163-.325-.73.405-2.351 1.216-1.946 1.946-1.297-.487-1.946.81-1.946 2.026.406.081.162-.486.568-.405 0 .243-.162.324.162.405.162-.162.243-.405.567-.405zm8.188-6.648c-.243.325.324-.243 0 0m.649.081c-.244.325.324-.243 0 0m-2.594 1.784c0 .081-.082-.081 0 0m.08.243c-.243.324.325-.162 0 0M204.3 25.141c.08-.487 0-1.378-.163-1.865.082.73-.08 1.378.163 1.865m3.81-1.297h.162v-.162h-.162zm-.892.405c-.081.73.567.73.081 1.297.243-.08.324 0 .324.243.568-.243 1.378-.81 1.46-1.216-.163.163-.244.325-.487.406 0-.487 0-.649-.243-.892-.162.243.162.405-.081.567-.081 0-.162-.405-.243-.08.162.08-.081.567-.244.567 0-.243-.243-.324-.243-.568.243-.08.325-.486.487-.73-.406.082-.487.325-.811.406m.567.324c.082.081 0-.08 0 0m-.405 1.46c.081.08 0-.081 0 0m-4.053.891c-.243-.08-.324.081-.406.244.244 0 .325-.163.406-.244.243 0 .324-.162.405-.324-.243 0-.324.162-.405.324m-.81.811c0-.081.242-.081.242-.243h-.324c0 .08 0 .243.081.243m-1.54 1.135v.162h.324v-.324h-.243c0 .08 0 .162-.081.162m-1.054 1.54h.162c0 .081.081.081.162.081-.08-.486.406-.567.487-.972-.406.162-.73.405-.811.891m-2.108 12.16c1.46 1.135 3.73-.162 5.107-.81 3.081-2.27 3.486-7.945 2.351-12.08 0 0 0-.08-.08-.08-3.162 3.242-7.297 6.728-7.378 12.97m2.027-11.998c-.243.325.324-.243 0 0m-1.297 1.46c.486-.244 1.135-.811.973-1.379-.244.568-.811.73-.973 1.379m-.162.324c.08.08-.081-.081 0 0m-.325.243c.081.081 0 0 0 0m-.567.973c.324-.081.486-.324.567-.73-.405 0-.405.487-.567.73m-.405.324c.486.162-.081.162-.081.487.405 0 .405-.325.486-.649-.243-.081-.405 0-.405.162m-.244.892q.244 0 .244-.243c-.163.08-.325 0-.244.243m-.486.892c.243.08.243-.568.081-.487.081.243-.162.243-.081.487m8.431 5.999c.081.08-.081 0 0 0m1.46 2.026c.08.081-.082 0 0 0m21.32-31.697c-.081.324-.405.405-.568.567-.162-.486.325-.405.568-.567m-.568.81c-.162.65-.73.892-1.378 1.055-.324-.73.73-.892 1.378-1.054m-2.918 1.459s-.081-.081 0 0m-.81.567c.08.081-.082-.08 0 0m-6.324 3.162c.324-.162-.243.324 0 0m-.973 1.216c0 .324-.891.324-.567.649 0 .243-.487 0-.324.324-.487-.406.486-.81.891-.973m-1.297.243c.243-.324.162.324 0 0m-1.621.892h.162v.243h-.162zm-.973.892c-.162.486-.648.73-1.054.972.243-.405.649-.73 1.054-.972m.649.08c.08.082 0 0 0 0m-.325.73c-.08.081-.162.162-.324.162-.081-.243.162-.162.324-.162m-2.107.73c.08.081 0 0 0 0m-.487.081c.487-.486-.324.405 0 0m.487.162c.08-.08.08 0 .162.081v.162c-.243-.162-.243.081-.406-.08 0-.163.244 0 .244-.163m-1.135.568v-.325c.162 0 .243.162.162.406-.081 0-.081-.081-.162-.081m.891.405c-.243-.081-.648-.405-.324-.649.243.081.324.325.324.649m-.891-.405c0 .08-.081.162-.081.243-.244.08-.163-.406.08-.243m51.56-11.998c0 .243-.244.243-.244.405.081 0 .162.081.243.081.406-.486.811-.648 1.703-.892-.568 1.622-1.622 3.162-2.675 4.216-2.757 1.945-5.594 5.026-9.323 5.999-3.891.73-5.594-2.189-6.323-5.837-4.135 2.918-6.81 7.134-12.08 8.917-3.972.162-4.701-4.945-3.972-8.43 1.054-3.081 2.19-6.73 3.162-9.729.405-.243.648-.648 1.054-.973.648.487 1.297.892 1.702 1.46-.648 5.837-3.405 9.16-3.972 14.268 0 .243.405.08.486.243 5.27-2.27 9.404-6.972 13.62-10.296.324-.08-.081-.243 0-.405 1.135.486 1.702 1.46 2.918 2.27-.324 1.459-.324 3-.243 4.945 3.972 1.297 6.972-2.919 10.052-4.378.487-.648 1.297-.973 1.703-1.783.243-.081.243.162.486.162.486-1.054 1.946-1.865 2.918-2.756-.567-.081-.567.405-1.053.405.405-.892 1.216-1.297 1.783-1.946.324.243-.162.73-.243.973.08.243.243-.162.486 0-.243.649-.08 1.135-.73 1.216-.08.324.325.081.244.405-.243.082-.324.163-.406.406-.243 0-.243-.243-.08-.406-.406.163-.73.406-.892.811.324.243.486-.243.81-.243 0 .486-.567.324-.648.73-.243.08-.162-.244-.243-.325a1 1 0 0 0-.406.406c0 .08.081.08.162.08M262.1 9.01h.243v-.244h-.243zm-1.946 2.918c.243.081.486-.243.243-.324-.081.162-.324.08-.243.324m-.405.243h.324v-.243h-.324zm.648.405c.081-.162.081-.405-.243-.405 0 .243 0 .405.243.405m-1.297.325c.486 0 .243-.487 0-.487zm.081.243c.486 0 .486-.486.892-.081.162-.162 0-.568-.162-.649-.244.325-.568.406-.73.73m-.648.648c.08-.324.486-.324.567-.648-.324.081-.81.405-.567.648m-16.052.163c0-.163.081-.244.081-.406-.405.081-.486.406-.648.73-.892-.081-1.622.892-2.351 1.216.08.324.08.486-.081.73.243.243.243-.325.567-.244 0 .243-.567.406-.324.568.324-.243.649-.487 1.054-.649-.243-.567.324-.973.486-1.378.243.243.487-.081.649-.243.324 0 .162-.405.567-.324 0 .324 0 .648-.324.567 0-.081.081-.081.081-.162-.405.081-.405.648-.81.73.162.08.324.162.567.243.162-.243-.162-.568.162-.73.567.324.81-.81 1.378-.486 0-.162.081-.162.081-.243-.405 0 .243-.325-.162-.487-.081.324-.324.487-.73.243.082.244-.08.325-.243.325m1.54-.163c0-.243-.162-.324-.324-.405 0 .243.081.405.325.405m14.105-.162c.081.081-.08 0 0 0m-16.456.244c.08.08 0-.082 0 0m16.537 0c.162.405.162-.406 0 0m-16.943.243c.081.08 0 0 0 0m15.24.405c-.08.243.163.243.163.405.405-.162.81-.243.892-.81-.649-.081-.649.648-1.054.405m.162.73c.324.243.162-.406 0 0m-15.646.08c-.243.325.324-.242 0 0m-.081.406c.243.243.162-.405 0 0m-2.108 1.621c-.08-.486.324-.891.487-.486.648-.973-1.46.081-.487.486m-1.783 1.135c.243-.243.405-.567.973-.567-.163-.405.324-.324.243-.649-.487.244-1.297.73-1.216 1.216m-.81.325v.162h.161s.081-.081.162-.081v-.162h-.243s0 .08-.08.08m22.455-7.295c.08.08 0-.081 0 0m2.026.08c.163-.08 0-.08 0 0m-20.266 3.973c.324-.243-.244.324 0 0M284.15 6.09a5.3 5.3 0 0 0-1.135-.648c-2.594 1.053-4.378 3.323-6.648 4.215-.162.73-.486 1.297-1.135 1.46-2.432 3.404-4.864 6.728-6.81 10.538-.242 1.865-1.134 3-2.674 3.567-4.054-1.865-1.703-8.269-1.298-11.917.811-1.864.892-4.702 1.784-6.161 3.567.81 2.108 4.62 1.702 7.215 1.865-2.837 4.216-5.188 6.567-7.62 2.189-1.865 7.701-4.46 9.647-.649m-6-.567c.568.08.568-.406.974-.244-.244-.567.648-.08.73-.648-.568.162-1.055.243-1.298.162-4.459 2.594-8.025 6.81-10.458 11.35 2.838-4.054 5.918-7.864 10.053-10.62m1.945-.811c.082.081-.08 0 0 0m.406.73c0 .162-.081.243-.162.324.324-.081.73-.081.81-.487-.243.081-.405.163-.648.163m-.81.73c.323 0 .404-.244.567-.406-.325-.162-.811 0-.568.405m-2.27 1.216c.73-.08 1.216-.973 1.865-.973-.081-.243.324-.567-.081-.486-.487.567-1.297.892-1.784 1.46m1.135-.325c-.243.324.324-.243 0 0m-1.783.973c.243-.162.567-.244.648-.568-.243.162-.892.243-.648.568m-1.054 1.378c.162-.324.648-.405.648-.892h-.243c.081.487-.73.568-.405.892m-.81.648s0-.08.08-.08c0-.082 0-.244-.162-.163 0 .081 0 .243.081.243m3.243-4.54c-.081 0-.162-.08 0-.08zm-2.838 1.703c.082.081-.08 0 0 0m-11.349 2.189c0-.324.405.08 0 0m39.237-4.054c-1.54 1.379-1.622 4.216-3 5.108-.648 1.54-.892 3.405-2.027 4.215-.891 4.054-3.729 7.54-4.864 11.35-1.378 1.54-3.161 3.972-5.755 2.837-1.216-1.297-2.432-3.162-1.784-5.756.081-.324 0-.648-.08-.892.404-1.945.81-4.053.89-6.08.893-3.242.811-7.052 1.298-10.133 1.54 0 2.189 1.216 2.675 1.946-.648 1.459-.243 3.729-.081 5.755-.73 2.757-.81 6.567-1.297 9.972 3.81-5.189 5.675-12.323 9.566-17.51.567-2.352 2.27-4.46 4.053-6.162 1.054-.081 1.703.324 2.351.649 0 2.27-1.297 3.08-1.945 4.701m.243-4.134c-.243.324.324-.243 0 0m.324.081c.162 0 .405.081.324-.162h-.162a.174.174 0 0 1-.162.162m-2.189.324h.162V1.47h-.162zM299.39 9.09c-.243 0-.891-.244-.81.243.243.162.486-.243.567 0-1.297.648-2.27 2.756-2.432 3.972.162-.081.162-.324.487-.405.162.486-.568.73-.081.81.73-1.54 1.54-3 2.27-4.62.648-.487.648-1.622 1.378-2.027-.081.081-.244.486.08.405-.324-1.054.65-1.621.892-2.594-.08-.081-.243-.081-.243-.243.081-.081 0-.487.324-.487 0 .163 0 .406.163.406.08-.162.405-.243.324-.649h.162c.162-.243.405-.405.486-.73-.162 0-.405.082-.405-.08s.081-.325.162-.406c.162.081.081.406.406.325.08-.406-.244-.325-.325-.568.243-.324.649-.486.81-.81-.404 0-.323.405-.648.405 0-.162 0-.325-.162-.325-.324.649-1.216 1.054-.973 1.946-.08.162-.405.081-.567.243.243 1.054-.973 1.216-.73 2.027-.73.81-1.297 1.864-1.702 3 .324 0 .324-.406.567-.406zm4.378-7.053c.081.08 0-.081 0 0m-.486.486c-.081.081 0 .081 0 0 .162-.08 0-.162 0 0m-2.432.649v.243h.243c.08-.162.08-.243-.081-.324-.081.08-.081.162-.162.08m-.244.406c.082.405.082-.405 0 0m-.243.649c.081.08 0 0 0 0m-.324.324c0 .08-.081 0 0 0m-.73 2.026c.162-.243.244-.648.325-1.053-.163 0-.163-.081-.325-.081.325.405-.486.891 0 1.134m-.73.082c.163.405 0 .81-.242.972.567.244.81-.891.405-1.054 0 .082-.081.163-.162.082m-1.297 3.161c-.487.487-.892 1.46-.892 2.108.405-.568.73-1.297.892-2.108h.405c0-.892.649-1.216.73-2.027-.892.325-.568 1.379-1.135 2.027m2.107-.243c.081.081 0 0 0 0m-3.404 3.08c.243.082.405-.405.243-.486-.081.162-.324.162-.243.487m-.568 1.134c.162-.243.568-.73.405-.972-.162.243-.567.73-.405.972m-.486 3h-.081c-.162.405-.487.73-.487 1.297h-.08c-.082.081-.163.243-.082.486.324.082.081-.324.162-.486.243-.405.568-.649.568-1.297.162 0 .08-.324.324-.243.162.324-.081.567.081.73.486-1.055 1.378-2.27 1.46-3.405-.406.405.08-.406-.163-.487-.567 1.216-1.378 2.027-1.702 3.405m1.945-1.702c.081-.082.244-.406 0-.406 0 .081-.243.406 0 .406m-2.107-.163c.08.081-.081 0 0 0m1.135 1.622v.162h.243c0-.081 0-.081.08-.081v-.243h-.242c0 .08 0 .162-.081.162m-1.379 2.026c.406 0 .568-.648.406-.891-.162.243-.243.648-.406.891m7.783-14.673c-.324-.162-.162.325-.487.243.163-.324.163-.81.649-.972 0 .08.081.162.081.243-.081.162-.324.162-.243.486m-1.135.973c.162 0 .162.081.405.081-.162.162-.243.487-.486.568.08-.325 0-.487.08-.649m2.028.486c.08.082.162 0 0 0m-2.432.325c.324-.081.162.324.08.405-.08 0-.08-.243-.08-.405m-.487.73h.243v.405h-.243zm-.486.972c.243.081.162.73-.162.568-.163-.325.243-.244.162-.568m-.243.973c.08-.081-.082-.162 0 0m0 0c-.163.081 0 .081 0 0m1.783.486c.162.081.081.163 0 .244-.162 0 0-.163 0-.244m-3.243 1.946c.244 0 .162.486-.162.486 0-.243.081-.405.162-.486m-.405.567c.405 0 .243.649-.081.568-.081-.243-.081-.405.081-.568m-.405 1.054c.243-.324.162.325 0 0m-.973 1.865c.405.08-.081.973-.405.973.162-.325.324-.649.405-.973m-.405 1.297c0 .324-.325.324-.406.648-.162-.162 0-.81.406-.648m29.59-10.052c-.244 1.378 0 2.27-1.298 3-.973 2.431-3.324 3.566-5.107 5.187-1.54.325-3.405 1.379-4.864.325-.892 1.216-.973 2.675-1.378 4.458 3.323 2.351 8.187-.73 11.592-1.783 1.865-1.054 3.891-2.108 6-3 .242-.324.729-.405.972-.648.243.73-1.46 1.135-2.027 1.702 0 .162.162.081.325.081-2.27 2.027-4.783 3.243-7.783 4.297.568 0 1.784 0 2.513-.405-.08.405-.405.486-.73.648 0 .162.487-.081.325.243-.973.325-1.865 1.297-2.351.973-.405.162-.081.324-.243.568-2.19.972-3.648 1.62-6.486 1.62-3.89-.81-4.377-4.62-3.89-8.106 1.458-4.458 4.62-9.404 9.079-11.592.81-.406 1.783-.244 2.594-.244.648.081.81.568 1.378.649.162.973.81 1.46 1.378 2.027m-6.323 1.459c.324.08.567-.568.81-.243-1.378 1.053-2.594 2.188-3.648 3.567 2.676-1.379 5.108-3 6.648-5.432-1.378.568-3 .973-3.81 2.108m-.487.324c.081.081 0-.081 0 0m-.648 12.566c.243.08.567-.163.486.486.406-.243.649-.405 1.054 0 .162-.162-.162-.486.162-.486.568 0 1.54-.406 2.027-.73-1.216.648-2.756.243-3.73.73m13.701-6.972c.162 0 0-.081 0 0m0 0c0 .162-.162.08 0 0m-7.539 6.323c.162-.324.162.405 0 0m28.617 1.783c5.026-4.215 9.971-8.43 15.078-12.484.973.162 1.946.487 2.108 1.621-5.432 5.756-11.998 10.377-17.673 15.89 0 2.675-.324 4.864-.324 7.377-1.378 11.673-3 22.86-6.81 32.67-.81 3.729-2.432 7.134-4.134 9.89-3 5.188-6.648 10.782-14.511 10.539-.568-.243-1.378-.568-1.946-.649-.08-.162-.243-.243-.162-.567-3.324-1.216-4.62-5.107-5.756-8.674-.891-5.756 1.379-10.458 3.243-14.917 2.189-5.188 4.702-10.295 7.945-14.349 4.702-7.944 10.944-14.268 16.78-20.996 1.217-.81 2.108-1.946 3.081-2.919.243-4.134.405-8.43.81-12.484-3.647 2.837-6.647 7.134-11.186 9.323-6.648-.973-2.108-9.16-1.135-13.052 4.377 1.216 1.053 6.81.324 9.485 4.62-2.756 8.593-6.81 12.484-10.62.973-.73 2.108-.162 2.513.81.081 4.216-.81 9.648-.73 14.106m13.782-10.538c.324-.243 1.216-.811.973-1.054-.324.405-.892.486-.973 1.054m1.54.162c-.08-.324.325-.162.244-.487-.325-.243-.325.163-.568.325-5.026 3.89-10.133 8.43-15.16 12.646 0 .487 0 .973-.08 1.378 1.053-.73 2.026-1.378 2.675-2.432.891-.243 1.783-1.216 2.27-2.188 1.54.243 2.107-2.595 3.729-2.595 1.945-2.675 5.755-4.864 7.863-7.296-.08.162-.162 0-.324 0-.081.325-.243.568-.649.649m-3 1.135c.325-.487 1.217-.81 1.136-1.297-.243.567-1.135.486-1.135 1.297m-.73.567c.162.325.244-.405 0 0m-1.216 1.378c.081-.243.568-.567.162-.73-.08.163-.486.487-.162.73m.487-.648c0 .08-.081 0 0 0m-1.865 1.702c.243-.405.81-.486.973-.891-.486.162-.892.324-.973.891m-.405.162c.324.163.324-.405 0-.243zm-1.865 1.46c.568-.325 1.622-.73 1.54-1.379-.486.487-1.053.892-1.54 1.379m0 .324c-1.54.162-3 2.756-4.62 3.162-.244 1.297-2.19 1.378-2.108 2.675.973-.406 1.297-1.865 2.27-1.865.08-.405.243-.81.648-.486 1.054-1.46 2.513-2.351 3.81-3.486m-11.106 8.917c.243.649-.567.73-.648 1.297-.244.081-.244-.162-.487-.08-.648.567-1.216 1.215-1.945 1.783.648.08 1.297-.73 1.783-1.216.081.08 0 .324.243.243.973-.324 1.216-2.108 1.865-1.946.162-.162.567-.648.324-.972-.405.324-.73.648-1.135.891M332.871 47.03c0 .486-.324.486-.324.973-.243.08-.73.486-.324.567.08-.162.324-.243.324-.567.486-.406.973-.892 1.135-1.622-.487 0-.405.568-.81.649.405-.73.89-1.378 1.377-1.946 0 .487-.405.568-.486.973 2.35-2.27 3.81-5.27 6.161-7.458-.324-.486.324-.486.081-.81-.405.486-.81 1.053-1.297 1.459.973-1.46 2.027-2.838 3.243-4.054 0 .243-.243.243-.162.568.324-.081.81-.568.648-.892-.081.162-.162.324-.486.324.891-1.216 2.026-2.594 3-3.324-.082.406-.487.487-.568.892.567-.243.73-.892 1.297-.81-.73-.325 1.378-1.46.567-1.622.406-.243.487-.73.973-.892-.081.163-.324.163-.243.487.81-.487 1.46-1.054 1.864-1.946-.648.162-.81 1.216-1.378 1.135.325-1.297 2.594-1.702 1.865-3-.324.568-1.216.973-1.216 1.541-.892.567-2.351 1.865-2.675 2.918-8.675 8.756-15.484 18.889-21.321 30.4-.568 2.027-1.135 2.838-1.621 4.54 2.026-3.89 4.053-8.512 6.404-12.322v.405c1.297-1.378 1.864-2.756 2.837-4.377-.891.405-.891 1.783-1.783 2.189.81-1.46 1.783-3.08 2.918-4.378M347.87 26.6c0-.162.162-.486-.163-.405 0 .243 0 .405.163.405m-.892 1.297c.08.081 0-.08 0 0m-.973 1.054c.486-.162.73-.486.892-.892-.406.162-.568.568-.892.892m-9.323 14.592c0 .324-.162.405-.162.81-3.161 3.406-5.431 7.864-8.025 11.674-2.838 6.648-6.324 11.998-6.891 20.754-.405.162-.081 1.216-.487 1.702-.162-.162.163-.892-.243-.892-.243 1.216.243 2.351.568 3.405 1.621 2.432 5.755 3.243 8.836 1.622 8.026-4.54 10.782-13.62 13.944-22.7 2.026-8.998 4.62-19.374 5.107-30.967 0-.081 0-.081-.081-.081-4.297 4.702-8.431 9.728-12.566 14.673m7.62-13.538c.406 0 1.136-.649.65-.892-.163.406-.65.406-.65.892m1.055-.73c.08 0 0-.08 0 0m-.163.811c-.162-.243.406-.324.081-.486 0 .162-.405.405-.08.486m1.54.324c0-.162.405-.324.08-.405 0 .162-.405.324-.08.405m-3.486.81c.405 0 .243-.648.81-.404.082-.244.406-.487 0-.568-.08.405-.81.324-.81.973m1.297-.81c.08.08 0-.082 0 0m-.162.324c.405.08 0-.325 0 0m2.026.243c.406.08.081-.243 0 0m-3.567.567c.325 0 .406.243.487-.08-.162-.163-.405-.082-.487.08m.73 0c.243 0 .324-.08.324-.162-.162 0-.243.081-.324.162m-.243.243v.163c.243.162.243-.325.08-.244 0 0 0 .081-.08.081m-1.216.487c.324 0 .648-.081.648-.406-.324.082-.486.163-.648.406m.892 0c-.244.324.324-.243 0 0m-1.216.567h-.163c-.08.081-.08.487.163.487zc.243 0 .486 0 .486-.162-.243-.243-.486-.08-.486.162m.81-.162c-.08.568.081-.405 0 0m1.703.568v.08c.243.082.405-.243.08-.161v-.325c-.242.162-.567.243-.567.649.325.162.325-.162.487-.243m-3.162.486c-.405 0 0 .324 0 0 .081 0 .162.081.243.081 0-.243.243-.567-.08-.567-.082.08-.163.243-.163.486m.73 0c.162.081.405-.243.162-.324 0 .162-.243.08-.162.324m-.244 0c.163.324.163-.405 0 0m.973 1.054c.325-.243 1.135-.487.973-.81a.174.174 0 0 1-.162.161c0-.243-.081-.324-.162-.324-.243.324-.406.649-.649.973m-2.432-.081c-.486.324-1.216 1.054-1.135 1.621.649-.243.73-1.054 1.297-1.46-.08-.08-.162-.08-.162-.161h.487c.162-.243.243-.406.243-.81-.406.08-.406.242-.324.567-.163.08-.487-.081-.406.243m.649.243c.243-.162.81-.486.567-.81-.08.324-.648.324-.567.81m-.406.405c.244.406.163-.324 0 0m-.405.811c0-.162.405-.567 0-.486.081.162-.243.405 0 .486m-1.054 1.216c.162-.324 1.135-.892.649-1.216 0 .567-.892.73-.649 1.216m2.189-1.054c.162.324.243-.405 0 0m-.81 1.216c-.163 0 0 .081 0 0 .324-.243.729-.486.81-.892-.567 0-.567.568-.81.892m-3.892 1.784c.973-.081 1.378-1.703 2.189-2.432-.892.243-1.621 1.621-2.189 2.432m1.46-.811c.243 0 .567-.486.324-.649-.081.244-.325.325-.325.649m-2.188 1.702c.405.325 1.053-.567.405-.648-.081.243-.324.405-.405.648m1.297-.486h-.081c-.082.081-.163.162-.163.324-.243 0 .163.406 0 0 .163-.08.244-.162.244-.324.405.081 0-.243 0 0m-1.784 1.054c.324 0 .568 0 .568-.324-.244-.244-.487.08-.568.324m1.297-.324c.081.324.081-.406 0 0m-1.297.567c-.08 0-.08-.081-.162-.081-.243.081.162.324.162.081m.73.081c0 .081-.081-.08 0 0m-.243.324c.405.081.08-.324 0 0m-6.243 7.783h-.08c-.892 1.459-1.703 2.432-2.433 4.053-.405.487-.891 1.46-.891 2.108.405-.649.648-1.378.891-2.108 1.216-.81 1.378-2.675 2.513-3.486zc.973-.487.73-1.622 1.703-2.108 0-.162 0-.324-.081-.486 1.54-1.297 2.675-3.324 3.972-5.189-2.189 2.19-4.053 4.864-5.594 7.783m19.294-7.54c.081.082 0 0 0 0m-13.457.244c.081 0 0-.081 0 0m13.944 1.54c-.081.568.08-.405 0 0m-.81.081c.161.324.242-.405 0 0m.81.487c-.243.324.324-.244 0 0m-.081.486c.08.081-.081-.081 0 0m-1.46 3.243h.406c-.162-.73.486-1.622.08-2.351-.242.73-.161 1.621-.486 2.35m1.135-1.134c0-.162.325-.568 0-.649.163.324-.243.568 0 .649m-1.459.81c.162.406.162-.405 0 0m-.08.325c.08 0 0-.081 0 0m.404.73c.325 0 .406-.65.082-.65-.163.244 0 .325-.082.65m.73-.163c.324.162.324-.405.162-.405 0 .162-.162.243-.162.405m-1.135.243c.081.081 0 0 0 0m-15.565.244v.162c.162.324.325-.162.406-.244-.163-.08-.244.082-.406.082m15.403 0c-.081.567 0-.406 0 0m-.73 6.08h-.08c-.082.648-.325.81-.568.972 0 .406.324-.162.243.162-.73 2.919-1.378 6-2.432 8.594h-.324c.08-.406-.324 0 0 0 0 .324-.568-.081-.406.324.082.324.568 0 .649.162-.324.649-.405 1.54-.892 2.108-.162-.325-.162.405-.567.08 0 .163-.406.568-.162.73.08-.567.486-.405.73-.73.08.325 0 .811-.325.568.486.73-.486 1.054-.405 1.946-.244 0-.325 0-.325.162-.243.243 0 1.054-.486 1.297-.243-.081-.324-.405-.568-.486.163.405-.405.567-.08.81.162-.567.243 0 .648-.243-.81.568 0 1.703-1.216 2.27 0 .324.324-.243.243.081-1.459.973-1.702 3.162-2.918 4.459.243.08.324-.243.405 0-.162.243-.243.405-.567.243-.568.892-1.297 1.54-1.865 2.432-.486.162-.73.486-.892 1.054.649.081.649-.486 1.054-.568.081-.324-.243-.243-.162-.486.243-.081.243 0 .405.081-.08-.324.325-.973.568-.892 0 .163-.243.081-.162.406-.162 0 0 .08 0 0 .324-.162.567-.406.648-.811-.162-.081-.324.324-.405 0 .73-.081 1.378-.81 1.54-1.702h.243c.163-.487.973-1.135.487-1.622.324 0 .162-.567.486-.648.162.243-.243.486 0 .567 2.189-3.729 3.567-7.782 5.27-12.16 0 .081.08.162.162.243.243-.324.08-.324.324-.648-.324 0-.324.324-.486.405.567-2.756 1.702-6.08 2.188-9.16.649-2.027.973-3.892 1.379-6.162-.649.325 0 1.946-.892 2.108.567 1.054-.487 2.594-.487 4.054m1.946-5.675c.324.08.324-.649 0-.487zm-.405 1.54c.405.081.08-.324 0 0m-.081.568c.324 0 .405-.406.08-.406 0 .162-.08.162-.08.406m-20.43 0c.325.324.163-.325 0 0m18.89 1.297c.243 0 .324-.162.324-.406-.244-.08-.325.081-.325.406m.973 1.216c.324.08.243-.244.405-.406-.162 0-.162-.08-.324-.08.081.242 0 .405-.08.486m-1.136.243h.162v-.243h-.162zm.81-.162c.082.08 0 0 0 0m-1.053.162c.162.324.162-.405 0 0m-17.51.243h.324c0-.162-.081-.243-.325-.162zm18.888-.081c.081.405.081-.405 0 0m-1.46.081c.082.081 0 0 0 0m-17.672.973c0-.243.649-.73.162-.892 0 .324-.405.649-.162.892m17.51-.405c.244.162.244-.406.082-.325 0 .162-.081.162-.081.325m-17.024-.163c.08.406.08-.405 0 0m-3.162 1.135c.324.081.405-.162.405-.324-.324-.081-.243.243-.405.324m2.189.244c0-.163.405-.568 0-.568.08.243-.324.405 0 .568m19.294-.487c.162.324.243-.405 0 0m-1.54.081c.162.406.162-.405 0 0m1.459.406c.08.08 0-.082 0 0m-19.537.162c.08.405.08-.406 0 0m18.159.324c.08.081 0-.081 0 0m1.297.081c.08.405.08-.405 0 0m-19.943.486c.081 0 .162.081.162.081 0-.162.081-.324-.162-.243zm-1.864 0c.08.081 0-.08 0 0m21.32 0c.081.081 0-.08 0 0m-1.135.081c0 .082-.08 0 0 0m-.243.244v.162c.243.162.324-.324.081-.324 0 .08 0 .162-.08.162m-20.51.972c0-.243.486-.486.161-.648 0 .162-.486.405-.162.648m20.348 0c.324.082.162-.324.243-.405-.243-.08-.243.162-.243.405m1.54-.162c.081.406.081-.324 0 0m-.08.487c.08.405.08-.325 0 0m-.325 1.135c.162.324.162-.406 0 0m-1.54.08v.082c-.243.567.486-.568 0-.081m1.135.162h-.081c.08.081 0 .081-.081.081v.243c.243 0 .162-.162.162-.324.162-.081 0-.081 0 0m-1.216.405h.162v-.162h-.162zm1.459-.08c.08.08-.081-.082 0 0m-.487.972c-.08-.243.325-.405-.08-.405 0 .162-.082.324.08.405m.244-.324c.162.405.162-.406 0 0m-1.54.567c.324 0 .405-.567.08-.567-.08.162-.08.324-.08.567m1.378 0c.08.406.08-.324 0 0m-.406.243c-.324.406.243-.324 0 0m-1.135.163c-.243.324.325-.244 0 0m1.46 0c.08.08-.082 0 0 0m-1.54.486c.08.405.08-.405 0 0m-.163.324c-.162.324.405-.243 0 0m-.243.892c.08.324.08-.405 0 0m.892 1.135c0-.081 0-.081.08-.081 0-.162 0-.243-.243-.243.082.162 0 .324.163.324m-.406.81c.325.082.406-.567.162-.648-.08.243-.162.405-.162.649m-1.054-.406c0 .081-.08-.08 0 0m.244.081c.08.081 0-.08 0 0m-.081.487c.08.08 0-.081 0 0m-20.754 1.135c0-.406.568-.973.162-1.135-.08.324-.405.81-.162 1.135m20.43-.73c.08.081 0-.081 0 0m1.296.081h.162v-.162h-.162zm-.486.649c-.162.162-.405.648-.162.81.08-.243.243-.405.162-.81h.081c.081 0 .243-.406 0-.487.081.243-.162.243-.081.487m-21.726 1.135c-.243 0 .162.405 0 0 .243-.163.324-.487.324-.811-.324 0-.243.405-.324.81m20.348.082c.08.08 0-.081 0 0m-.649.648c.243.081.406-.567.162-.648 0 .243-.08.405-.162.648m.568-.162c0-.081.243-.405 0-.405.08.162-.325.324 0 .405m.891-.243c.082.405.082-.324 0 0m-.08.324c-.082.568 0-.405 0 0m-1.865 1.621c.162-.324.243-.648.405-.972-.405.08-.81.81-.405.972m-.973 2.108h-.081c-.081 0-.243.324 0 .324.081-.08.081-.162.081-.324.162-.243.73-.648.243-.81.162.486-.324.324-.243.81m-.567.973c.162 0 .405-.405.162-.405-.081.162-.162.243-.162.405m-.649 1.216c.081-.081.405-.324.162-.486.081.243-.405.324-.162.486m-.243.567c.162.082.405-.243.162-.243 0 .081-.162.162-.162.243m-.568.973c.244.081.568-.486.162-.486 0 .243-.162.324-.162.486m-.324.406h.162v-.163h-.162zm-.162.81c0-.243.081-.243.162-.567-.324-.081-.567.486-.162.567m-.405.162c.162.325.243-.405 0 0m-.487 1.054c.081-.243.243-.324.406-.567-.163 0-.244-.162-.406-.081.081.324-.486.486 0 .648m1.622-.486c.08.081 0 0 0 0m-2.676 1.702c.162-.405.892-.648.649-1.054-.162.325-.892.649-.649 1.054m1.135.406c.162.324.243-.406 0 0m-4.458 2.594h-.244v.162c.244.081.244-.081.244-.162.648-.324 1.216-.73 1.459-1.46-.568.406-.973.973-1.46 1.46m-3.242.648c-2.108.892-3.73.162-5.594-.243.892 1.216 4.054 1.378 5.594.243m39.155-72.798c-.08.324-.567.243-.73.567-.161-.243.163-.73.73-.567m-1.864 1.46c.243-.325.73-.893.973-.811a1.9 1.9 0 0 1-.973.81m0 0c-.081.243-.324.406-.568.487.162-.244.162-.487.568-.487m-8.27 7.296h.163v.162c-.081 0-.081 0-.081.081h-.162v-.162c.08 0 .08-.08.08-.08m-10.538 7.62c.081-.244.406.162 0 0m-.162 2.27c0-.163 0-.325.162-.325 0 .162-.08.243-.162.324m-1.216 1.135c.243-.324.162.325 0 0m-.162.244c0 .486-.486.405-.568.891-.243-.324.244-.81.568-.891m-1.54 2.432c.08 0 .08 0 .08-.081-.08-.082-.08 0-.08.08m-5.594 6c.081.243-.081.324-.243.405 0-.243.162-.324.243-.405m-.324.486c0-.081 0-.081.08-.081 0 .081 0 .081-.08.081m0 0c0 .162-.162.081 0 0m-.325.243c.082.406-.486.973-.891 1.216.243-.486.648-.81.891-1.216m-3.81 5.107c.811-1.216 1.865-2.756 2.757-3.567-.811 1.298-1.622 2.595-2.757 3.567m-2.35 2.838c.08.08 0-.081 0 0m-2.027 3.567c.486.162 0 .486-.081.73-.325-.244.08-.487.08-.73m-.486.73c.325.243-.162.486-.162.729-.486-.162.081-.486.162-.73m12.16 17.754c.163 0 .081.162 0 0m-2.513 5.188c.243-.405.162.325 0 0m-1.297 2.757c-.162 0-.162-.081-.08-.244.08 0 .161.081.08.244m-.973 1.216c.163-.081 0-.081 0 0m0 0c0 .405-.405 0 0 0" fill="#fff"/></svg>