<svg width="92.71" height="92.713" viewBox="0 0 86.5 86.5" xmlns="http://www.w3.org/2000/svg"><g fill="#33FFFF"><path d="M23.63 35.428a4.943 4.943 0 0 0-4.94 4.86c-1.27.679-2.514 1.323-3.775 1.94-1.085.538-1.367 1.208-1.394 2.337-.132 5.478-.344 10.955-.529 16.432-.035 1.12-.07 2.24-.123 3.766-1.164-.661-1.923-1.19-2.752-1.552-2.276-.988-3.043-2.567-2.805-5.09.37-3.845.327-7.726.468-11.95-1.209.608-2.055 1.146-2.973 1.472-1.843.653-2.381 1.88-2.346 3.793.053 3.387-.08 6.783-.335 10.152-.141 1.87.265 3.07 2.046 3.978 2.232 1.146 4.296 2.628 6.439 3.951 2.231 1.385 4.472 2.76 7.03 4.34.044-1.209.07-1.985.088-2.752.238-6.986.626-13.98.626-20.965 0-2.638.564-4.455 2.76-5.53.741.44 1.606.696 2.523.696 2.725 0 4.94-2.214 4.94-4.939s-2.223-4.94-4.949-4.94m0 7.674h-.035a2.727 2.727 0 0 1-2.69-2.734 2.735 2.735 0 0 1 2.734-2.734h.009c.256 0 .494.035.732.097a2.75 2.75 0 0 1 1.993 2.637 2.75 2.75 0 0 1-2.743 2.734"/><path d="M31.655 26.431c-.97 0-1.87.283-2.637.768a168 168 0 0 1-2.778-1.835c-.997-.679-1.729-.6-2.725-.07-4.834 2.575-9.711 5.071-14.58 7.594-.997.52-1.984 1.032-3.343 1.737.01-1.34.097-2.258.01-3.157-.257-2.461.74-3.916 3.06-4.94 3.528-1.56 6.888-3.501 10.645-5.45-1.12-.759-2.002-1.226-2.743-1.87-1.473-1.288-2.804-1.156-4.454-.185-2.92 1.71-5.944 3.254-9.014 4.683-1.693.794-2.549 1.738-2.47 3.73.098 2.515-.185 5.028-.29 7.55C.22 37.617.124 40.245 0 43.243c1.068-.555 1.756-.908 2.444-1.27 6.2-3.22 12.489-6.306 18.574-9.737 2.117-1.19 3.855-1.623 5.69-.609a4.95 4.95 0 0 0 4.93 4.701c2.725 0 4.939-2.213 4.939-4.939s-2.196-4.957-4.922-4.957m2.726 5.187a2.735 2.735 0 0 1-5.46-.247 2.74 2.74 0 0 1 2.39-2.717q.172-.026.344-.026a2.75 2.75 0 0 1 2.602 1.887 2.7 2.7 0 0 1 .133.847c0 .088 0 .176-.01.256m16.238 40.475c-5.98-3.634-11.871-7.4-17.966-10.823-2.284-1.287-3.59-2.654-3.466-5.062a4.94 4.94 0 0 0 2.805-4.454c0-2.726-2.214-4.94-4.94-4.94s-4.939 2.214-4.939 4.94c0 1.684.847 3.166 2.135 4.057-.036 1.561-.08 3.07-.16 4.569-.06 1.208.38 1.79 1.35 2.363 4.71 2.796 9.376 5.672 14.06 8.512.952.582 1.913 1.164 3.219 1.958-1.147.688-1.985 1.085-2.7 1.631-1.975 1.5-3.73 1.394-5.812-.053-3.166-2.205-6.57-4.066-10.187-6.262-.061 1.35-.009 2.355-.176 3.317-.335 1.922.467 2.99 2.152 3.907 2.972 1.614 5.865 3.396 8.688 5.274 1.56 1.041 2.804 1.27 4.471.168 2.1-1.385 4.402-2.452 6.607-3.67 2.302-1.27 4.604-2.54 7.232-3.995-1.05-.635-1.711-1.04-2.373-1.437M27.051 54.488a2.74 2.74 0 0 1-2.734-2.637v-.097c0-.062 0-.115.009-.177v-.017a2.76 2.76 0 0 1 .609-1.535 2.71 2.71 0 0 1 2.116-1.006 2.737 2.737 0 0 1 2.735 2.735 2.74 2.74 0 0 1-2.734 2.734"/><path d="M70.005 42.554c-1.05.591-1.729.97-2.4 1.35-6.094 3.43-12.268 6.72-18.239 10.355-2.17 1.323-3.96 1.799-5.936.652q.027-.249.027-.511c0-2.726-2.214-4.94-4.94-4.94s-4.939 2.214-4.939 4.94a4.942 4.942 0 0 0 6.924 4.524c1.332.794 2.62 1.57 3.89 2.373 1.023.644 1.746.547 2.725-.018 4.745-2.734 9.534-5.398 14.315-8.079.979-.547 1.949-1.102 3.28-1.843.036 1.34-.026 2.258.098 3.157.335 2.452-.609 3.934-2.893 5.045-3.475 1.685-6.765 3.731-10.452 5.813 1.147.714 2.046 1.164 2.805 1.781 1.517 1.235 2.84 1.059 4.454.036 2.858-1.808 5.83-3.458 8.855-4.984 1.667-.846 2.487-1.825 2.338-3.81-.177-2.505.017-5.036.035-7.559.017-2.654.026-5.283.053-8.282m-31.488 14.58a2.745 2.745 0 0 1-2.557-1.764 2.737 2.737 0 0 1 2.558-3.704c1.208 0 2.24.793 2.601 1.878a2.742 2.742 0 0 1-2.602 3.59"/><path d="M67.28 34.44c-.168-3.378-.15-6.774-.01-10.16.08-1.87-.37-3.061-2.178-3.908-2.276-1.067-4.384-2.478-6.57-3.74-2.276-1.314-4.57-2.61-7.172-4.1v2.76c0 6.994-.158 13.988.08 20.974.088 2.47-.353 4.233-2.179 5.389a4.96 4.96 0 0 0-2.46-.662c-2.726 0-4.94 2.214-4.94 4.94s2.214 4.939 4.94 4.939 4.939-2.214 4.939-4.93a109 109 0 0 1 3.395-1.888c1.068-.574 1.332-1.253 1.315-2.382-.053-5.477-.027-10.954-.027-16.431v-3.766c1.182.626 1.958 1.129 2.796 1.455 2.302.908 3.131 2.46 2.972 4.992-.238 3.854-.061 7.726-.061 11.96 1.182-.644 2.01-1.217 2.928-1.57 1.834-.723 2.328-1.967 2.231-3.872M49.04 47.502a2.73 2.73 0 0 1-1.966 1.147c-.088.009-.177.009-.265.009a2.736 2.736 0 0 1-.132-5.468h.132a2.737 2.737 0 0 1 2.734 2.734c0 .59-.185 1.137-.502 1.578"/><path d="M46.235 30.833c.08-1.315.167-2.602.273-3.881.106-1.2-.317-1.8-1.27-2.408-4.613-2.955-9.181-5.98-13.768-8.979-.935-.617-1.878-1.226-3.149-2.064 1.173-.652 2.02-1.023 2.752-1.543 2.029-1.43 3.775-1.27 5.813.247 3.095 2.31 6.43 4.286 9.966 6.606.106-1.35.088-2.346.291-3.308.397-1.914-.37-3.007-2.02-3.969-2.919-1.71-5.75-3.59-8.502-5.556-1.517-1.094-2.76-1.367-4.463-.318-2.143 1.314-4.48 2.311-6.72 3.449-2.347 1.19-4.684 2.39-7.357 3.748 1.006.662 1.659 1.085 2.311 1.509 5.848 3.828 11.616 7.797 17.596 11.422 2.126 1.296 3.37 2.637 3.316 4.824a4.94 4.94 0 0 0-2.663 4.384c0 2.725 2.214 4.939 4.939 4.939s4.94-2.214 4.94-4.94a5.02 5.02 0 0 0-2.285-4.162m-.291 5.503c-.194.335-.45.626-.768.856a2.7 2.7 0 0 1-1.614.529 2.737 2.737 0 0 1-2.381-4.084 2.73 2.73 0 0 1 2.381-1.384c1.12 0 2.082.67 2.505 1.64.15.335.23.706.23 1.094 0 .494-.133.952-.353 1.35"/></g></svg>